G75*
G70*
%OFA0B0*%
%FSLAX24Y24*%
%IPPOS*%
%LPD*%
%AMOC8*
5,1,8,0,0,1.08239X$1,22.5*
%
%ADD10R,0.0600X0.0600*%
%ADD11OC8,0.0600*%
%ADD12C,0.0520*%
%ADD13R,0.0710X0.0630*%
%ADD14C,0.0600*%
%ADD15R,0.0630X0.0709*%
%ADD16R,0.0709X0.0630*%
%ADD17OC8,0.0630*%
%ADD18C,0.0630*%
%ADD19C,0.0885*%
%ADD20C,0.0594*%
%ADD21R,0.2126X0.2441*%
%ADD22R,0.0394X0.0630*%
%ADD23C,0.0396*%
%ADD24C,0.0160*%
%ADD25R,0.0396X0.0396*%
%ADD26C,0.0240*%
%ADD27C,0.0400*%
%ADD28C,0.0320*%
D10*
X016395Y017131D03*
D11*
X017395Y017131D03*
X018395Y017131D03*
X018395Y018131D03*
X017395Y018131D03*
X016395Y018131D03*
D12*
X024945Y015381D03*
X026845Y015381D03*
D13*
X020145Y015441D03*
X020145Y014321D03*
X028145Y007191D03*
X028145Y006071D03*
X029895Y005571D03*
X029895Y006691D03*
D14*
X033645Y005181D02*
X033645Y004581D01*
X034645Y004581D02*
X034645Y005181D01*
X035645Y005181D02*
X035645Y004581D01*
X036645Y004581D02*
X036645Y005181D01*
X030645Y002931D02*
X030645Y002331D01*
X029645Y002331D02*
X029645Y002931D01*
X028645Y002931D02*
X028645Y002331D01*
X027645Y002331D02*
X027645Y002931D01*
X026645Y002931D02*
X026645Y002331D01*
X036345Y011131D02*
X036945Y011131D01*
X036945Y012131D02*
X036345Y012131D01*
X036345Y013131D02*
X036945Y013131D01*
X036945Y014131D02*
X036345Y014131D01*
X036345Y015131D02*
X036945Y015131D01*
X036945Y016131D02*
X036345Y016131D01*
X036345Y017131D02*
X036945Y017131D01*
X036945Y018131D02*
X036345Y018131D01*
X036345Y019131D02*
X036945Y019131D01*
X036945Y020131D02*
X036345Y020131D01*
X029645Y020431D02*
X029645Y019831D01*
X028645Y019831D02*
X028645Y020431D01*
X027645Y020431D02*
X027645Y019831D01*
X025895Y019831D02*
X025895Y020431D01*
X024895Y020431D02*
X024895Y019831D01*
X023895Y019831D02*
X023895Y020431D01*
X022895Y020431D02*
X022895Y019831D01*
X021395Y019831D02*
X021395Y020431D01*
X020395Y020431D02*
X020395Y019831D01*
X019395Y019831D02*
X019395Y020431D01*
X018395Y020431D02*
X018395Y019831D01*
X017395Y019831D02*
X017395Y020431D01*
X016395Y020431D02*
X016395Y019831D01*
X014445Y020131D02*
X013845Y020131D01*
X013845Y019131D02*
X014445Y019131D01*
X014445Y018131D02*
X013845Y018131D01*
X013845Y017131D02*
X014445Y017131D01*
X014445Y016131D02*
X013845Y016131D01*
X013845Y015131D02*
X014445Y015131D01*
X014445Y014131D02*
X013845Y014131D01*
X013845Y013131D02*
X014445Y013131D01*
X002195Y014881D02*
X001595Y014881D01*
X001595Y015881D02*
X002195Y015881D01*
X002195Y016881D02*
X001595Y016881D01*
X001595Y017881D02*
X002195Y017881D01*
X002195Y009381D02*
X001595Y009381D01*
X001595Y008381D02*
X002195Y008381D01*
X002195Y007381D02*
X001595Y007381D01*
X001595Y006381D02*
X002195Y006381D01*
D15*
X018344Y008131D03*
X019446Y008131D03*
X024344Y016381D03*
X025446Y016381D03*
X026344Y016381D03*
X027446Y016381D03*
D16*
X021645Y015432D03*
X021645Y014330D03*
X023645Y008432D03*
X023645Y007330D03*
D17*
X018195Y009631D03*
X010395Y007381D03*
X011895Y003831D03*
X010395Y015881D03*
D18*
X010395Y016881D03*
X019595Y009631D03*
X010395Y008381D03*
X011895Y002431D03*
D19*
X014203Y002631D02*
X015088Y002631D01*
X020203Y002631D02*
X021088Y002631D01*
X009338Y002631D02*
X008453Y002631D01*
X003338Y002631D02*
X002453Y002631D01*
D20*
X002442Y003631D02*
X001848Y003631D01*
X001848Y004631D02*
X002442Y004631D01*
D21*
X021645Y005647D03*
D22*
X020747Y008521D03*
X022543Y008521D03*
D23*
X023645Y009381D03*
X024395Y010131D03*
X023895Y010631D03*
X021395Y010631D03*
X020645Y011381D03*
X019645Y011881D03*
X017145Y010881D03*
X016645Y011381D03*
X016145Y011881D03*
X015645Y012381D03*
X012395Y011381D03*
X010395Y009381D03*
X008895Y008881D03*
X007395Y008881D03*
X006895Y008381D03*
X005395Y008881D03*
X005395Y006881D03*
X007395Y006881D03*
X004395Y004881D03*
X003395Y004881D03*
X003895Y010881D03*
X003395Y011381D03*
X004895Y011881D03*
X004395Y013381D03*
X002895Y013881D03*
X004395Y015381D03*
X005395Y015381D03*
X007395Y015381D03*
X007895Y015881D03*
X006895Y016881D03*
X007395Y017381D03*
X005395Y017381D03*
X003895Y019381D03*
X003395Y019881D03*
X004395Y019881D03*
X007895Y020881D03*
X015645Y015881D03*
X016645Y015881D03*
X017895Y014881D03*
X020145Y013631D03*
X020895Y014473D03*
X020895Y015418D03*
X019145Y016381D03*
X021020Y018506D03*
X023645Y016381D03*
X023895Y014381D03*
X026395Y013131D03*
X029395Y010131D03*
X028895Y009631D03*
X028145Y009631D03*
X027145Y009881D03*
X027645Y009131D03*
X029895Y009631D03*
X032395Y008631D03*
X032645Y007381D03*
X034395Y008631D03*
X036395Y009131D03*
X036645Y007381D03*
X032645Y005381D03*
X031145Y003881D03*
X032895Y002631D03*
X036895Y002631D03*
X029145Y005381D03*
X027895Y005381D03*
X026645Y005381D03*
X025895Y006631D03*
X025895Y003631D03*
X007895Y010881D03*
X007395Y011381D03*
X028645Y018881D03*
X031645Y019131D03*
X030395Y016631D03*
D24*
X001125Y005974D02*
X001125Y001861D01*
X011612Y001861D01*
X011535Y001892D01*
X011357Y002071D01*
X011260Y002304D01*
X011260Y002557D01*
X011357Y002790D01*
X011535Y002969D01*
X011769Y003066D01*
X012021Y003066D01*
X012255Y002969D01*
X012433Y002790D01*
X012530Y002557D01*
X012530Y002304D01*
X012433Y002071D01*
X012255Y001892D01*
X012178Y001861D01*
X024895Y001861D01*
X024895Y008032D01*
X024310Y008032D01*
X024271Y007936D01*
X024181Y007846D01*
X024090Y007808D01*
X024179Y007719D01*
X024179Y007407D01*
X023723Y007407D01*
X023723Y007252D01*
X024179Y007252D01*
X024179Y006940D01*
X024074Y006835D01*
X023723Y006835D01*
X023723Y007252D01*
X023567Y007252D01*
X023111Y007252D01*
X023111Y006940D01*
X023216Y006835D01*
X023567Y006835D01*
X023567Y007252D01*
X023567Y007407D01*
X023111Y007407D01*
X023111Y007719D01*
X023200Y007808D01*
X023109Y007846D01*
X023019Y007936D01*
X023013Y007952D01*
X022938Y007952D01*
X022921Y007934D01*
X022803Y007886D01*
X022282Y007886D01*
X022165Y007934D01*
X022075Y008024D01*
X022026Y008142D01*
X022026Y008899D01*
X022075Y009017D01*
X022165Y009107D01*
X022174Y009111D01*
X021267Y009111D01*
X021267Y008925D01*
X021267Y008417D01*
X021264Y008409D01*
X021264Y008142D01*
X021216Y008024D01*
X021126Y007934D01*
X021008Y007886D01*
X020487Y007886D01*
X020369Y007934D01*
X020279Y008024D01*
X020231Y008142D01*
X020231Y008409D01*
X020227Y008417D01*
X020227Y008813D01*
X019966Y009074D01*
X019966Y008733D01*
X020032Y008666D01*
X020081Y008549D01*
X020081Y007713D01*
X020032Y007595D01*
X019942Y007505D01*
X019825Y007456D01*
X019068Y007456D01*
X018950Y007505D01*
X018860Y007595D01*
X018823Y007686D01*
X018733Y007596D01*
X018421Y007596D01*
X018421Y008053D01*
X018266Y008053D01*
X017849Y008053D01*
X017849Y007702D01*
X017954Y007596D01*
X018266Y007596D01*
X018266Y008053D01*
X018266Y008208D01*
X017849Y008208D01*
X017849Y008560D01*
X017954Y008665D01*
X018266Y008665D01*
X018266Y008209D01*
X018421Y008209D01*
X018421Y008665D01*
X018733Y008665D01*
X018823Y008576D01*
X018860Y008666D01*
X018926Y008733D01*
X018926Y009585D01*
X018945Y009631D01*
X018195Y009631D01*
X018195Y009631D01*
X017700Y009631D01*
X017700Y009836D01*
X017805Y009941D01*
X015585Y009941D01*
X015895Y009631D01*
X018195Y009631D01*
X018690Y009631D01*
X018690Y009836D01*
X018585Y009941D01*
X018663Y009941D01*
X018953Y009650D01*
X018945Y009631D01*
X018195Y009631D01*
X018195Y009631D01*
X018195Y009631D01*
X018690Y009631D01*
X018690Y009426D01*
X018400Y009136D01*
X018195Y009136D01*
X018195Y009630D01*
X018195Y009630D01*
X018195Y009136D01*
X017990Y009136D01*
X017820Y009306D01*
X016645Y008131D01*
X013645Y008131D01*
X012645Y009131D01*
X012645Y009941D01*
X012057Y009941D01*
X011896Y010008D01*
X011772Y010132D01*
X011463Y010441D01*
X008187Y010441D01*
X007998Y010363D01*
X007792Y010363D01*
X007602Y010442D01*
X007456Y010587D01*
X007377Y010778D01*
X007377Y010863D01*
X007292Y010863D01*
X007102Y010942D01*
X006956Y011087D01*
X006877Y011278D01*
X006877Y011481D01*
X005228Y011481D01*
X005189Y011442D01*
X004998Y011363D01*
X004795Y011363D01*
X004795Y005214D01*
X004834Y005174D01*
X004913Y004984D01*
X004913Y004778D01*
X004834Y004587D01*
X004689Y004442D01*
X004585Y004399D01*
X004657Y004399D01*
X004774Y004350D01*
X004844Y004281D01*
X007446Y004281D01*
X007516Y004350D01*
X007633Y004399D01*
X008157Y004399D01*
X008274Y004350D01*
X008364Y004260D01*
X008413Y004143D01*
X008413Y003619D01*
X008364Y003501D01*
X008274Y003411D01*
X008157Y003363D01*
X007633Y003363D01*
X007516Y003411D01*
X007446Y003481D01*
X004844Y003481D01*
X004774Y003411D01*
X004657Y003363D01*
X004133Y003363D01*
X004016Y003411D01*
X003926Y003501D01*
X003877Y003619D01*
X003877Y004143D01*
X003926Y004260D01*
X004016Y004350D01*
X004133Y004399D01*
X004205Y004399D01*
X004102Y004442D01*
X003956Y004587D01*
X003895Y004734D01*
X003834Y004587D01*
X003689Y004442D01*
X003498Y004363D01*
X003292Y004363D01*
X003102Y004442D01*
X002956Y004587D01*
X002919Y004677D01*
X002919Y004649D01*
X002164Y004649D01*
X002164Y004612D01*
X002919Y004612D01*
X002919Y004536D01*
X002846Y004361D01*
X002712Y004227D01*
X002664Y004207D01*
X002791Y004154D01*
X002965Y003980D01*
X003059Y003753D01*
X003059Y003508D01*
X003011Y003393D01*
X003489Y003393D01*
X003769Y003277D01*
X003984Y003063D01*
X004100Y002782D01*
X004100Y002479D01*
X003984Y002199D01*
X003769Y001984D01*
X003489Y001868D01*
X002301Y001868D01*
X002021Y001984D01*
X001806Y002199D01*
X001690Y002479D01*
X001690Y002782D01*
X001786Y003014D01*
X001725Y003014D01*
X001499Y003108D01*
X001325Y003281D01*
X001231Y003508D01*
X001231Y003753D01*
X001325Y003980D01*
X001499Y004154D01*
X001626Y004207D01*
X001578Y004227D01*
X001444Y004361D01*
X001371Y004536D01*
X001371Y004612D01*
X002126Y004612D01*
X002126Y004649D01*
X001371Y004649D01*
X001371Y004726D01*
X001444Y004901D01*
X001578Y005035D01*
X001753Y005108D01*
X002127Y005108D01*
X002127Y004649D01*
X002163Y004649D01*
X002163Y005108D01*
X002537Y005108D01*
X002712Y005035D01*
X002846Y004901D01*
X002877Y004826D01*
X002877Y004984D01*
X002956Y005174D01*
X002995Y005214D01*
X002995Y010215D01*
X002556Y010654D01*
X002495Y010801D01*
X002495Y010960D01*
X002495Y013548D01*
X002456Y013587D01*
X002377Y013778D01*
X002377Y013984D01*
X002456Y014174D01*
X002602Y014320D01*
X002792Y014399D01*
X002995Y014399D01*
X002995Y019548D01*
X002956Y019587D01*
X002877Y019778D01*
X002877Y019811D01*
X002856Y019733D01*
X002720Y019498D01*
X002528Y019306D01*
X002293Y019170D01*
X002031Y019100D01*
X001759Y019100D01*
X001497Y019170D01*
X001262Y019306D01*
X001125Y019443D01*
X001125Y018288D01*
X001244Y018406D01*
X001472Y018501D01*
X002318Y018501D01*
X002546Y018406D01*
X002721Y018232D01*
X002815Y018004D01*
X002815Y017757D01*
X002721Y017530D01*
X002572Y017381D01*
X002721Y017232D01*
X002815Y017004D01*
X002815Y016757D01*
X002721Y016530D01*
X002572Y016381D01*
X002721Y016232D01*
X002815Y016004D01*
X002815Y015757D01*
X002721Y015530D01*
X002572Y015381D01*
X002721Y015232D01*
X002815Y015004D01*
X002815Y014757D01*
X002721Y014530D01*
X002546Y014355D01*
X002318Y014261D01*
X001472Y014261D01*
X001244Y014355D01*
X001125Y014474D01*
X001125Y009788D01*
X001244Y009906D01*
X001472Y010001D01*
X002318Y010001D01*
X002546Y009906D01*
X002721Y009732D01*
X002815Y009504D01*
X002815Y009257D01*
X002721Y009030D01*
X002572Y008881D01*
X002721Y008732D01*
X002815Y008504D01*
X002815Y008257D01*
X002721Y008030D01*
X002572Y007881D01*
X002995Y007881D01*
X002995Y007723D02*
X002725Y007723D01*
X002721Y007732D02*
X002572Y007881D01*
X002721Y007732D02*
X002815Y007504D01*
X002815Y007257D01*
X002721Y007030D01*
X002572Y006881D01*
X002721Y006732D01*
X002815Y006504D01*
X002815Y006257D01*
X002721Y006030D01*
X002546Y005855D01*
X002318Y005761D01*
X001472Y005761D01*
X001244Y005855D01*
X001125Y005974D01*
X001125Y005820D02*
X001329Y005820D01*
X001125Y005661D02*
X002995Y005661D01*
X002995Y005503D02*
X001125Y005503D01*
X001125Y005344D02*
X002995Y005344D01*
X002967Y005186D02*
X001125Y005186D01*
X001125Y005027D02*
X001570Y005027D01*
X001431Y004869D02*
X001125Y004869D01*
X001125Y004710D02*
X001371Y004710D01*
X001371Y004552D02*
X001125Y004552D01*
X001125Y004393D02*
X001430Y004393D01*
X001570Y004235D02*
X001125Y004235D01*
X001125Y004076D02*
X001421Y004076D01*
X001299Y003917D02*
X001125Y003917D01*
X001125Y003759D02*
X001234Y003759D01*
X001231Y003600D02*
X001125Y003600D01*
X001125Y003442D02*
X001259Y003442D01*
X001324Y003283D02*
X001125Y003283D01*
X001125Y003125D02*
X001482Y003125D01*
X001766Y002966D02*
X001125Y002966D01*
X001125Y002808D02*
X001700Y002808D01*
X001690Y002649D02*
X001125Y002649D01*
X001125Y002491D02*
X001690Y002491D01*
X001751Y002332D02*
X001125Y002332D01*
X001125Y002174D02*
X001831Y002174D01*
X001990Y002015D02*
X001125Y002015D01*
X003031Y003442D02*
X003985Y003442D01*
X003885Y003600D02*
X003059Y003600D01*
X003056Y003759D02*
X003877Y003759D01*
X003877Y003917D02*
X002991Y003917D01*
X002869Y004076D02*
X003877Y004076D01*
X003915Y004235D02*
X002720Y004235D01*
X002860Y004393D02*
X003218Y004393D01*
X002991Y004552D02*
X002919Y004552D01*
X002877Y004869D02*
X002859Y004869D01*
X002895Y005027D02*
X002720Y005027D01*
X003395Y004881D02*
X003395Y010381D01*
X002895Y010881D01*
X002895Y013881D01*
X002410Y014064D02*
X001125Y014064D01*
X001125Y013906D02*
X002377Y013906D01*
X002390Y013747D02*
X001125Y013747D01*
X001125Y013589D02*
X002455Y013589D01*
X002495Y013430D02*
X001125Y013430D01*
X001125Y013272D02*
X002495Y013272D01*
X002495Y013113D02*
X001125Y013113D01*
X001125Y012954D02*
X002495Y012954D01*
X002495Y012796D02*
X001125Y012796D01*
X001125Y012637D02*
X002495Y012637D01*
X002495Y012479D02*
X001125Y012479D01*
X001125Y012320D02*
X002495Y012320D01*
X002495Y012162D02*
X001125Y012162D01*
X001125Y012003D02*
X002495Y012003D01*
X002495Y011845D02*
X001125Y011845D01*
X001125Y011686D02*
X002495Y011686D01*
X002495Y011528D02*
X001125Y011528D01*
X001125Y011369D02*
X002495Y011369D01*
X002495Y011210D02*
X001125Y011210D01*
X001125Y011052D02*
X002495Y011052D01*
X002495Y010893D02*
X001125Y010893D01*
X001125Y010735D02*
X002523Y010735D01*
X002634Y010576D02*
X001125Y010576D01*
X001125Y010418D02*
X002792Y010418D01*
X002951Y010259D02*
X001125Y010259D01*
X001125Y010101D02*
X002995Y010101D01*
X002995Y009942D02*
X002460Y009942D01*
X002669Y009784D02*
X002995Y009784D01*
X002995Y009625D02*
X002765Y009625D01*
X002815Y009466D02*
X002995Y009466D01*
X002995Y009308D02*
X002815Y009308D01*
X002770Y009149D02*
X002995Y009149D01*
X002995Y008991D02*
X002682Y008991D01*
X002620Y008832D02*
X002995Y008832D01*
X002995Y008674D02*
X002745Y008674D01*
X002810Y008515D02*
X002995Y008515D01*
X002995Y008357D02*
X002815Y008357D01*
X002790Y008198D02*
X002995Y008198D01*
X002995Y008040D02*
X002725Y008040D01*
X002790Y007564D02*
X002995Y007564D01*
X002995Y007405D02*
X002815Y007405D01*
X002811Y007247D02*
X002995Y007247D01*
X002995Y007088D02*
X002745Y007088D01*
X002621Y006930D02*
X002995Y006930D01*
X002995Y006771D02*
X002681Y006771D01*
X002770Y006613D02*
X002995Y006613D01*
X002995Y006454D02*
X002815Y006454D01*
X002815Y006296D02*
X002995Y006296D01*
X002995Y006137D02*
X002765Y006137D01*
X002670Y005979D02*
X002995Y005979D01*
X002995Y005820D02*
X002461Y005820D01*
X002163Y005027D02*
X002127Y005027D01*
X002127Y004869D02*
X002163Y004869D01*
X002163Y004710D02*
X002127Y004710D01*
X003572Y004393D02*
X004119Y004393D01*
X003991Y004552D02*
X003799Y004552D01*
X003885Y004710D02*
X003905Y004710D01*
X004395Y004881D02*
X004395Y013381D01*
X011645Y013381D01*
X013645Y011381D01*
X016645Y011381D01*
X016145Y011881D02*
X013645Y011881D01*
X011395Y014131D01*
X011395Y016881D01*
X008895Y019381D01*
X008895Y019881D01*
X004395Y019881D01*
X004728Y019481D02*
X008495Y019481D01*
X008495Y019460D01*
X008495Y019301D01*
X008556Y019154D01*
X010216Y017494D01*
X010035Y017419D01*
X009897Y017281D01*
X007913Y017281D01*
X007913Y017484D01*
X007834Y017674D01*
X007689Y017820D01*
X007498Y017899D01*
X007292Y017899D01*
X007102Y017820D01*
X007062Y017781D01*
X005728Y017781D01*
X005689Y017820D01*
X005498Y017899D01*
X005292Y017899D01*
X005102Y017820D01*
X004956Y017674D01*
X004877Y017484D01*
X004877Y017278D01*
X004956Y017087D01*
X005102Y016942D01*
X005292Y016863D01*
X005498Y016863D01*
X005689Y016942D01*
X005728Y016981D01*
X006377Y016981D01*
X006377Y016778D01*
X006456Y016587D01*
X006602Y016442D01*
X006792Y016363D01*
X006998Y016363D01*
X007189Y016442D01*
X009935Y016442D01*
X009897Y016481D02*
X010035Y016342D01*
X010121Y016307D01*
X009900Y016086D01*
X009900Y015881D01*
X010395Y015881D01*
X009895Y015881D01*
X009395Y016381D01*
X006395Y016381D01*
X006601Y016442D02*
X004295Y016442D01*
X004295Y016284D02*
X007565Y016284D01*
X007562Y016281D02*
X004315Y016281D01*
X004295Y016272D01*
X004295Y019048D01*
X004334Y019087D01*
X004413Y019278D01*
X004413Y019363D01*
X004498Y019363D01*
X004689Y019442D01*
X004728Y019481D01*
X004702Y019455D02*
X008495Y019455D01*
X008497Y019296D02*
X004413Y019296D01*
X004355Y019138D02*
X008572Y019138D01*
X008731Y018979D02*
X004295Y018979D01*
X004295Y018821D02*
X008890Y018821D01*
X009048Y018662D02*
X004295Y018662D01*
X004295Y018503D02*
X009207Y018503D01*
X009365Y018345D02*
X004295Y018345D01*
X004295Y018186D02*
X009524Y018186D01*
X009682Y018028D02*
X004295Y018028D01*
X004295Y017869D02*
X005221Y017869D01*
X004992Y017711D02*
X004295Y017711D01*
X004295Y017552D02*
X004905Y017552D01*
X004877Y017394D02*
X004295Y017394D01*
X004295Y017235D02*
X004895Y017235D01*
X004966Y017077D02*
X004295Y017077D01*
X004295Y016918D02*
X005158Y016918D01*
X005632Y016918D02*
X006377Y016918D01*
X006384Y016759D02*
X004295Y016759D01*
X004295Y016601D02*
X006450Y016601D01*
X006895Y016881D02*
X010395Y016881D01*
X010995Y016670D02*
X010995Y014210D01*
X010995Y014051D01*
X011056Y013904D01*
X011179Y013781D01*
X004728Y013781D01*
X004689Y013820D01*
X004498Y013899D01*
X004295Y013899D01*
X004295Y014863D01*
X004498Y014863D01*
X004689Y014942D01*
X004834Y015087D01*
X004895Y015234D01*
X004956Y015087D01*
X005102Y014942D01*
X005292Y014863D01*
X005498Y014863D01*
X005689Y014942D01*
X005728Y014981D01*
X007062Y014981D01*
X007102Y014942D01*
X007292Y014863D01*
X007498Y014863D01*
X007689Y014942D01*
X007834Y015087D01*
X007913Y015278D01*
X007913Y015363D01*
X007998Y015363D01*
X008189Y015442D01*
X008334Y015587D01*
X008413Y015778D01*
X008413Y015984D01*
X008334Y016174D01*
X008189Y016320D01*
X007998Y016399D01*
X007792Y016399D01*
X007602Y016320D01*
X007562Y016281D01*
X007228Y016481D02*
X009897Y016481D01*
X010098Y016284D02*
X008225Y016284D01*
X008355Y016125D02*
X009940Y016125D01*
X009900Y015967D02*
X008413Y015967D01*
X008413Y015808D02*
X009900Y015808D01*
X009900Y015881D02*
X009900Y015676D01*
X010190Y015386D01*
X010395Y015386D01*
X010600Y015386D01*
X010890Y015676D01*
X010890Y015881D01*
X010890Y016086D01*
X010669Y016307D01*
X010755Y016342D01*
X010933Y016521D01*
X010995Y016670D01*
X010995Y016601D02*
X010966Y016601D01*
X010995Y016442D02*
X010855Y016442D01*
X010995Y016284D02*
X010692Y016284D01*
X010850Y016125D02*
X010995Y016125D01*
X010995Y015967D02*
X010890Y015967D01*
X010890Y015881D02*
X010395Y015881D01*
X010395Y015881D01*
X010395Y015881D01*
X009900Y015881D01*
X009926Y015650D02*
X008360Y015650D01*
X008238Y015491D02*
X010085Y015491D01*
X010395Y015491D02*
X010395Y015491D01*
X010395Y015386D02*
X010395Y015880D01*
X010395Y015880D01*
X010395Y015386D01*
X010395Y015650D02*
X010395Y015650D01*
X010395Y015808D02*
X010395Y015808D01*
X010395Y015881D02*
X010890Y015881D01*
X010890Y015808D02*
X010995Y015808D01*
X010995Y015650D02*
X010864Y015650D01*
X010995Y015491D02*
X010705Y015491D01*
X010995Y015333D02*
X007913Y015333D01*
X007870Y015174D02*
X010995Y015174D01*
X010995Y015016D02*
X007762Y015016D01*
X007395Y015381D02*
X005395Y015381D01*
X005028Y015016D02*
X004762Y015016D01*
X004870Y015174D02*
X004920Y015174D01*
X004395Y015381D02*
X004395Y015881D01*
X007895Y015881D01*
X007228Y016481D02*
X007189Y016442D01*
X007395Y017381D02*
X005395Y017381D01*
X005569Y017869D02*
X007221Y017869D01*
X007569Y017869D02*
X009841Y017869D01*
X009999Y017711D02*
X007798Y017711D01*
X007885Y017552D02*
X010158Y017552D01*
X010010Y017394D02*
X007913Y017394D01*
X009795Y019546D02*
X010145Y019196D01*
X010145Y021147D01*
X002087Y021147D01*
X002293Y021092D01*
X002528Y020956D01*
X002720Y020764D01*
X002856Y020529D01*
X002926Y020267D01*
X002926Y020103D01*
X002956Y020174D01*
X003102Y020320D01*
X003292Y020399D01*
X003495Y020399D01*
X003495Y020460D01*
X003556Y020607D01*
X003668Y020720D01*
X003815Y020781D01*
X009315Y020781D01*
X009475Y020781D01*
X009622Y020720D01*
X009734Y020607D01*
X009795Y020460D01*
X009795Y019546D01*
X009795Y019613D02*
X010145Y019613D01*
X010145Y019455D02*
X009887Y019455D01*
X010045Y019296D02*
X010145Y019296D01*
X010145Y019772D02*
X009795Y019772D01*
X009795Y019930D02*
X010145Y019930D01*
X010145Y020089D02*
X009795Y020089D01*
X009795Y020247D02*
X010145Y020247D01*
X010145Y020406D02*
X009795Y020406D01*
X009752Y020565D02*
X010145Y020565D01*
X010145Y020723D02*
X009614Y020723D01*
X009395Y020381D02*
X009395Y019381D01*
X011895Y016881D01*
X011895Y014131D01*
X013645Y012381D01*
X015645Y012381D01*
X017320Y013272D02*
X019772Y013272D01*
X019706Y013337D02*
X019852Y013192D01*
X020042Y013113D01*
X020248Y013113D01*
X020439Y013192D01*
X020584Y013337D01*
X020663Y013528D01*
X020663Y013727D01*
X020681Y013735D01*
X020771Y013825D01*
X020820Y013942D01*
X020820Y014700D01*
X020771Y014817D01*
X020708Y014881D01*
X020746Y014919D01*
X020792Y014900D01*
X020998Y014900D01*
X021038Y014917D01*
X021109Y014846D01*
X021200Y014808D01*
X021111Y014719D01*
X021111Y014407D01*
X021567Y014407D01*
X021567Y014252D01*
X021111Y014252D01*
X021111Y013940D01*
X021216Y013835D01*
X021567Y013835D01*
X021567Y014252D01*
X021723Y014252D01*
X021723Y013835D01*
X022074Y013835D01*
X022125Y013886D01*
X022125Y010151D01*
X019973Y010151D01*
X019955Y010169D01*
X019721Y010266D01*
X019582Y010266D01*
X019218Y010630D01*
X019094Y010754D01*
X018933Y010821D01*
X017663Y010821D01*
X017663Y010984D01*
X017618Y011092D01*
X017668Y011042D01*
X017815Y010981D01*
X017975Y010981D01*
X020312Y010981D01*
X020352Y010942D01*
X020542Y010863D01*
X020748Y010863D01*
X020939Y010942D01*
X021084Y011087D01*
X021163Y011278D01*
X021163Y011484D01*
X021084Y011674D01*
X020939Y011820D01*
X020748Y011899D01*
X020542Y011899D01*
X020352Y011820D01*
X020312Y011781D01*
X020163Y011781D01*
X020163Y011984D01*
X020084Y012174D01*
X019939Y012320D01*
X019748Y012399D01*
X019542Y012399D01*
X019352Y012320D01*
X018271Y012320D01*
X018311Y012281D02*
X015545Y015046D01*
X015545Y015363D01*
X015597Y015363D01*
X016418Y014542D01*
X016565Y014481D01*
X016725Y014481D01*
X017562Y014481D01*
X017602Y014442D01*
X017792Y014363D01*
X017998Y014363D01*
X018189Y014442D01*
X018334Y014587D01*
X018413Y014778D01*
X018413Y014984D01*
X018334Y015174D01*
X018189Y015320D01*
X017998Y015399D01*
X017792Y015399D01*
X017602Y015320D01*
X017562Y015281D01*
X016811Y015281D01*
X016729Y015363D01*
X016748Y015363D01*
X016939Y015442D01*
X017084Y015587D01*
X017163Y015778D01*
X017163Y015984D01*
X017118Y016092D01*
X017168Y016042D01*
X017315Y015981D01*
X017475Y015981D01*
X018725Y015981D01*
X018745Y015989D01*
X018745Y014960D01*
X018745Y014801D01*
X018806Y014654D01*
X019470Y013990D01*
X019470Y013942D01*
X019519Y013825D01*
X019609Y013735D01*
X019627Y013727D01*
X019627Y013528D01*
X019706Y013337D01*
X019667Y013430D02*
X017161Y013430D01*
X017003Y013589D02*
X019627Y013589D01*
X019596Y013747D02*
X016844Y013747D01*
X016686Y013906D02*
X019485Y013906D01*
X019396Y014064D02*
X016527Y014064D01*
X016369Y014223D02*
X019237Y014223D01*
X019079Y014381D02*
X018043Y014381D01*
X018287Y014540D02*
X018920Y014540D01*
X018788Y014698D02*
X018380Y014698D01*
X018413Y014857D02*
X018745Y014857D01*
X018745Y015016D02*
X018400Y015016D01*
X018334Y015174D02*
X018745Y015174D01*
X018745Y015333D02*
X018158Y015333D01*
X017632Y015333D02*
X016759Y015333D01*
X016988Y015491D02*
X018745Y015491D01*
X018745Y015650D02*
X017110Y015650D01*
X017163Y015808D02*
X018745Y015808D01*
X018745Y015967D02*
X017163Y015967D01*
X017395Y016381D02*
X017395Y017131D01*
X017395Y016381D02*
X018645Y016381D01*
X019395Y017131D01*
X019395Y018631D01*
X019895Y019131D01*
X020895Y019131D01*
X021395Y019631D01*
X021395Y020131D01*
X022015Y020089D02*
X022275Y020089D01*
X022275Y020247D02*
X022015Y020247D01*
X022015Y020406D02*
X022275Y020406D01*
X022275Y020554D02*
X022275Y019707D01*
X022348Y019531D01*
X021942Y019531D01*
X022015Y019707D01*
X022015Y020554D01*
X021921Y020782D01*
X021746Y020956D01*
X021518Y021051D01*
X021272Y021051D01*
X021044Y020956D01*
X020895Y020808D01*
X020746Y020956D01*
X020518Y021051D01*
X020272Y021051D01*
X020044Y020956D01*
X019895Y020808D01*
X019746Y020956D01*
X019518Y021051D01*
X019272Y021051D01*
X019044Y020956D01*
X018869Y020782D01*
X018819Y020661D01*
X018802Y020703D01*
X018667Y020838D01*
X018491Y020911D01*
X018415Y020911D01*
X018415Y020151D01*
X018375Y020151D01*
X018375Y020911D01*
X018300Y020911D01*
X018123Y020838D01*
X017988Y020703D01*
X017971Y020661D01*
X017921Y020782D01*
X017746Y020956D01*
X017518Y021051D01*
X017272Y021051D01*
X017044Y020956D01*
X016895Y020808D01*
X016746Y020956D01*
X016518Y021051D01*
X016272Y021051D01*
X016044Y020956D01*
X015869Y020782D01*
X015775Y020554D01*
X015775Y019707D01*
X015869Y019480D01*
X016044Y019305D01*
X016272Y019211D01*
X016518Y019211D01*
X016746Y019305D01*
X016895Y019454D01*
X016995Y019354D01*
X016995Y018608D01*
X016895Y018508D01*
X016652Y018751D01*
X016138Y018751D01*
X015918Y018531D01*
X015725Y018531D01*
X015565Y018531D01*
X015561Y018531D01*
X015065Y019026D01*
X015065Y019254D01*
X014971Y019482D01*
X014796Y019656D01*
X014675Y019707D01*
X014717Y019724D01*
X014852Y019859D01*
X014925Y020035D01*
X014925Y020111D01*
X014165Y020111D01*
X014165Y020151D01*
X014125Y020151D01*
X014125Y020611D01*
X013750Y020611D01*
X013573Y020538D01*
X013438Y020403D01*
X013365Y020226D01*
X013365Y020151D01*
X014125Y020151D01*
X014125Y020111D01*
X013365Y020111D01*
X013365Y020035D01*
X013438Y019859D01*
X013573Y019724D01*
X013615Y019707D01*
X013494Y019656D01*
X013319Y019482D01*
X013225Y019254D01*
X013225Y019007D01*
X013319Y018780D01*
X013468Y018631D01*
X013319Y018482D01*
X013225Y018254D01*
X013225Y018007D01*
X013319Y017780D01*
X013468Y017631D01*
X013319Y017482D01*
X013225Y017254D01*
X013225Y017007D01*
X013319Y016780D01*
X013468Y016631D01*
X013319Y016482D01*
X013225Y016254D01*
X013225Y016007D01*
X013319Y015780D01*
X013468Y015631D01*
X013319Y015482D01*
X013225Y015254D01*
X013225Y015007D01*
X013319Y014780D01*
X013468Y014631D01*
X013319Y014482D01*
X013225Y014254D01*
X013225Y014007D01*
X013319Y013780D01*
X013468Y013631D01*
X013319Y013482D01*
X013258Y013334D01*
X012395Y014196D01*
X012395Y017131D01*
X011145Y018631D01*
X011145Y021147D01*
X037535Y021147D01*
X037535Y020326D01*
X037471Y020482D01*
X037296Y020656D01*
X037068Y020751D01*
X036222Y020751D01*
X035994Y020656D01*
X035819Y020482D01*
X035725Y020254D01*
X035725Y020007D01*
X035819Y019780D01*
X035968Y019631D01*
X035819Y019482D01*
X035725Y019254D01*
X035725Y019007D01*
X035819Y018780D01*
X035968Y018631D01*
X035868Y018531D01*
X034061Y018531D01*
X033234Y019357D01*
X033234Y019357D01*
X033122Y019470D01*
X032975Y019531D01*
X031978Y019531D01*
X031939Y019570D01*
X031748Y019649D01*
X031542Y019649D01*
X031352Y019570D01*
X031206Y019424D01*
X031127Y019234D01*
X031127Y019028D01*
X031206Y018837D01*
X031352Y018692D01*
X031542Y018613D01*
X031748Y018613D01*
X031939Y018692D01*
X031978Y018731D01*
X032729Y018731D01*
X033329Y018131D01*
X032806Y017607D01*
X032745Y017460D01*
X032745Y017301D01*
X032745Y014830D01*
X032676Y014760D01*
X032627Y014643D01*
X032627Y014119D01*
X032676Y014001D01*
X032766Y013911D01*
X032883Y013863D01*
X033407Y013863D01*
X033524Y013911D01*
X033614Y014001D01*
X033663Y014119D01*
X033663Y014643D01*
X033614Y014760D01*
X033545Y014830D01*
X033545Y017215D01*
X034061Y017731D01*
X035192Y017731D01*
X035315Y017680D01*
X035919Y017680D01*
X035968Y017631D01*
X035819Y017482D01*
X035725Y017254D01*
X035725Y017007D01*
X035819Y016780D01*
X035968Y016631D01*
X035819Y016482D01*
X035725Y016254D01*
X035725Y016007D01*
X035819Y015780D01*
X035968Y015631D01*
X035819Y015482D01*
X035725Y015254D01*
X035725Y015007D01*
X035819Y014780D01*
X035968Y014631D01*
X035819Y014482D01*
X035725Y014254D01*
X035725Y014007D01*
X035819Y013780D01*
X035968Y013631D01*
X035819Y013482D01*
X035725Y013254D01*
X035725Y013007D01*
X035819Y012780D01*
X035968Y012631D01*
X035868Y012531D01*
X035815Y012531D01*
X035668Y012470D01*
X035418Y012220D01*
X035306Y012107D01*
X035245Y011960D01*
X035245Y010460D01*
X035245Y010301D01*
X035306Y010154D01*
X035418Y010042D01*
X035565Y009981D01*
X036995Y009981D01*
X036995Y007763D01*
X036939Y007820D01*
X036748Y007899D01*
X036542Y007899D01*
X036352Y007820D01*
X036206Y007674D01*
X036127Y007484D01*
X036127Y007428D01*
X035729Y007031D01*
X033028Y007031D01*
X033084Y007087D01*
X033163Y007278D01*
X033163Y007484D01*
X033084Y007674D01*
X032939Y007820D01*
X032748Y007899D01*
X032542Y007899D01*
X032352Y007820D01*
X032206Y007674D01*
X032146Y007531D01*
X031561Y007531D01*
X029413Y009678D01*
X029413Y009734D01*
X029334Y009924D01*
X029189Y010070D01*
X028998Y010149D01*
X028792Y010149D01*
X028602Y010070D01*
X028520Y009988D01*
X028439Y010070D01*
X028248Y010149D01*
X028042Y010149D01*
X027852Y010070D01*
X027706Y009924D01*
X027663Y009821D01*
X027663Y009984D01*
X027584Y010174D01*
X027439Y010320D01*
X027248Y010399D01*
X027042Y010399D01*
X026852Y010320D01*
X026706Y010174D01*
X026627Y009984D01*
X026627Y009778D01*
X026706Y009587D01*
X026745Y009548D01*
X026745Y008270D01*
X026745Y008111D01*
X026806Y007964D01*
X027470Y007300D01*
X027470Y007121D01*
X024984Y009607D01*
X024984Y009607D01*
X024872Y009720D01*
X024725Y009781D01*
X023978Y009781D01*
X023939Y009820D01*
X023748Y009899D01*
X023545Y009899D01*
X023545Y017215D01*
X024061Y017731D01*
X027975Y017731D01*
X028122Y017792D01*
X028234Y017904D01*
X028693Y018363D01*
X028748Y018363D01*
X028939Y018442D01*
X029084Y018587D01*
X029163Y018778D01*
X029163Y018984D01*
X029084Y019174D01*
X029004Y019254D01*
X029086Y019336D01*
X029127Y019436D01*
X029171Y019480D01*
X029221Y019601D01*
X029238Y019559D01*
X029373Y019424D01*
X029550Y019351D01*
X029625Y019351D01*
X029625Y020111D01*
X029665Y020111D01*
X029665Y020151D01*
X029625Y020151D01*
X029625Y020911D01*
X029550Y020911D01*
X029373Y020838D01*
X029238Y020703D01*
X029221Y020661D01*
X029171Y020782D01*
X028996Y020956D01*
X028768Y021051D01*
X028522Y021051D01*
X028294Y020956D01*
X028145Y020808D01*
X027996Y020956D01*
X027768Y021051D01*
X027522Y021051D01*
X027294Y020956D01*
X027119Y020782D01*
X027025Y020554D01*
X027025Y019826D01*
X026729Y019531D01*
X026442Y019531D01*
X026515Y019707D01*
X026515Y020554D01*
X026421Y020782D01*
X026246Y020956D01*
X026018Y021051D01*
X025772Y021051D01*
X025544Y020956D01*
X025369Y020782D01*
X025319Y020661D01*
X025302Y020703D01*
X025167Y020838D01*
X024991Y020911D01*
X024915Y020911D01*
X024915Y020151D01*
X024875Y020151D01*
X024875Y020911D01*
X024800Y020911D01*
X024623Y020838D01*
X024488Y020703D01*
X024415Y020526D01*
X024415Y020151D01*
X024875Y020151D01*
X024875Y020111D01*
X024415Y020111D01*
X024415Y019735D01*
X024488Y019559D01*
X024516Y019531D01*
X024274Y019531D01*
X024302Y019559D01*
X024375Y019735D01*
X024375Y020111D01*
X023915Y020111D01*
X023915Y020151D01*
X023875Y020151D01*
X023875Y020911D01*
X023800Y020911D01*
X023623Y020838D01*
X023488Y020703D01*
X023471Y020661D01*
X023421Y020782D01*
X023246Y020956D01*
X023018Y021051D01*
X022772Y021051D01*
X022544Y020956D01*
X022369Y020782D01*
X022275Y020554D01*
X022279Y020565D02*
X022011Y020565D01*
X021945Y020723D02*
X022345Y020723D01*
X022469Y020882D02*
X021821Y020882D01*
X021544Y021040D02*
X022746Y021040D01*
X023044Y021040D02*
X025746Y021040D01*
X026044Y021040D02*
X027496Y021040D01*
X027794Y021040D02*
X028496Y021040D01*
X028794Y021040D02*
X037535Y021040D01*
X037535Y020882D02*
X029811Y020882D01*
X029741Y020911D02*
X029665Y020911D01*
X029665Y020151D01*
X030125Y020151D01*
X030125Y020526D01*
X030052Y020703D01*
X029917Y020838D01*
X029741Y020911D01*
X029665Y020882D02*
X029625Y020882D01*
X029479Y020882D02*
X029071Y020882D01*
X029195Y020723D02*
X029259Y020723D01*
X029625Y020723D02*
X029665Y020723D01*
X029665Y020565D02*
X029625Y020565D01*
X029625Y020406D02*
X029665Y020406D01*
X029665Y020247D02*
X029625Y020247D01*
X029665Y020111D02*
X030125Y020111D01*
X030125Y019735D01*
X030052Y019559D01*
X029917Y019424D01*
X029741Y019351D01*
X029665Y019351D01*
X029665Y020111D01*
X029665Y020089D02*
X029625Y020089D01*
X029625Y019930D02*
X029665Y019930D01*
X029665Y019772D02*
X029625Y019772D01*
X029625Y019613D02*
X029665Y019613D01*
X029665Y019455D02*
X029625Y019455D01*
X029342Y019455D02*
X029146Y019455D01*
X029046Y019296D02*
X031153Y019296D01*
X031127Y019138D02*
X029099Y019138D01*
X029163Y018979D02*
X031147Y018979D01*
X031223Y018821D02*
X029163Y018821D01*
X029115Y018662D02*
X031423Y018662D01*
X031867Y018662D02*
X032798Y018662D01*
X032957Y018503D02*
X029000Y018503D01*
X028675Y018345D02*
X033115Y018345D01*
X033274Y018186D02*
X028516Y018186D01*
X028358Y018028D02*
X033226Y018028D01*
X033068Y017869D02*
X028199Y017869D01*
X027895Y018131D02*
X023895Y018131D01*
X023145Y017381D01*
X023145Y008932D01*
X023645Y008432D01*
X025094Y008432D01*
X027145Y006381D01*
X027145Y004381D01*
X028145Y003381D01*
X031645Y003381D01*
X032645Y004381D01*
X032645Y005381D01*
X033145Y005881D01*
X036645Y005881D01*
X037395Y006631D01*
X037395Y010381D01*
X035645Y010381D01*
X035645Y011881D01*
X035895Y012131D01*
X036645Y012131D01*
X037175Y011555D02*
X037296Y011605D01*
X037471Y011780D01*
X037535Y011935D01*
X037535Y010756D01*
X037475Y010781D01*
X037315Y010781D01*
X037274Y010781D01*
X037352Y010859D01*
X037425Y011035D01*
X037425Y011111D01*
X036665Y011111D01*
X036665Y011151D01*
X037425Y011151D01*
X037425Y011226D01*
X037352Y011403D01*
X037217Y011538D01*
X037175Y011555D01*
X037227Y011528D02*
X037535Y011528D01*
X037535Y011686D02*
X037377Y011686D01*
X037498Y011845D02*
X037535Y011845D01*
X037535Y011369D02*
X037366Y011369D01*
X037425Y011210D02*
X037535Y011210D01*
X037535Y011052D02*
X037425Y011052D01*
X037366Y010893D02*
X037535Y010893D01*
X036995Y009942D02*
X029316Y009942D01*
X029393Y009784D02*
X036995Y009784D01*
X036995Y009625D02*
X029466Y009625D01*
X029625Y009466D02*
X036995Y009466D01*
X036995Y009308D02*
X029784Y009308D01*
X029942Y009149D02*
X036995Y009149D01*
X036995Y008991D02*
X030101Y008991D01*
X030259Y008832D02*
X036995Y008832D01*
X036995Y008674D02*
X030418Y008674D01*
X030576Y008515D02*
X036995Y008515D01*
X036995Y008357D02*
X030735Y008357D01*
X030893Y008198D02*
X036995Y008198D01*
X036995Y008040D02*
X031052Y008040D01*
X031210Y007881D02*
X032499Y007881D01*
X032254Y007723D02*
X031369Y007723D01*
X031527Y007564D02*
X032160Y007564D01*
X032395Y007131D02*
X032645Y007381D01*
X032395Y007131D02*
X031395Y007131D01*
X028895Y009631D01*
X028676Y010101D02*
X028364Y010101D01*
X027926Y010101D02*
X027615Y010101D01*
X027663Y009942D02*
X027724Y009942D01*
X028145Y009631D02*
X031145Y006631D01*
X035895Y006631D01*
X036645Y007381D01*
X036160Y007564D02*
X033130Y007564D01*
X033163Y007405D02*
X036104Y007405D01*
X035945Y007247D02*
X033150Y007247D01*
X033085Y007088D02*
X035787Y007088D01*
X036254Y007723D02*
X033036Y007723D01*
X032791Y007881D02*
X036499Y007881D01*
X036791Y007881D02*
X036995Y007881D01*
X037535Y006205D02*
X037535Y001881D01*
X031072Y001881D01*
X031171Y001980D01*
X031265Y002207D01*
X031265Y002981D01*
X031725Y002981D01*
X031872Y003042D01*
X031984Y003154D01*
X032984Y004154D01*
X033045Y004301D01*
X033045Y004409D01*
X033119Y004230D01*
X033294Y004055D01*
X033522Y003961D01*
X033768Y003961D01*
X033996Y004055D01*
X034145Y004204D01*
X034294Y004055D01*
X034522Y003961D01*
X034768Y003961D01*
X034996Y004055D01*
X035145Y004204D01*
X035294Y004055D01*
X035522Y003961D01*
X035768Y003961D01*
X035996Y004055D01*
X036171Y004230D01*
X036221Y004351D01*
X036238Y004309D01*
X036373Y004174D01*
X036550Y004101D01*
X036625Y004101D01*
X036625Y004861D01*
X036665Y004861D01*
X036665Y004901D01*
X037125Y004901D01*
X037125Y005276D01*
X037052Y005453D01*
X036917Y005587D01*
X036984Y005654D01*
X037535Y006205D01*
X037535Y006137D02*
X037467Y006137D01*
X037535Y005979D02*
X037308Y005979D01*
X037150Y005820D02*
X037535Y005820D01*
X037535Y005661D02*
X036991Y005661D01*
X037002Y005503D02*
X037535Y005503D01*
X037535Y005344D02*
X037097Y005344D01*
X037125Y005186D02*
X037535Y005186D01*
X037535Y005027D02*
X037125Y005027D01*
X037125Y004861D02*
X036665Y004861D01*
X036665Y004101D01*
X036741Y004101D01*
X036917Y004174D01*
X037052Y004309D01*
X037125Y004485D01*
X037125Y004861D01*
X037125Y004710D02*
X037535Y004710D01*
X037535Y004552D02*
X037125Y004552D01*
X037087Y004393D02*
X037535Y004393D01*
X037535Y004235D02*
X036978Y004235D01*
X036665Y004235D02*
X036625Y004235D01*
X036625Y004393D02*
X036665Y004393D01*
X036665Y004552D02*
X036625Y004552D01*
X036625Y004710D02*
X036665Y004710D01*
X036665Y004869D02*
X037535Y004869D01*
X036312Y004235D02*
X036173Y004235D01*
X036017Y004076D02*
X037535Y004076D01*
X037535Y003917D02*
X032747Y003917D01*
X032589Y003759D02*
X037535Y003759D01*
X037535Y003600D02*
X032430Y003600D01*
X032272Y003442D02*
X037535Y003442D01*
X037535Y003283D02*
X032113Y003283D01*
X031955Y003125D02*
X037535Y003125D01*
X037535Y002966D02*
X031265Y002966D01*
X031265Y002808D02*
X037535Y002808D01*
X037535Y002649D02*
X031265Y002649D01*
X031265Y002491D02*
X037535Y002491D01*
X037535Y002332D02*
X031265Y002332D01*
X031251Y002174D02*
X037535Y002174D01*
X037535Y002015D02*
X031185Y002015D01*
X031145Y003881D02*
X028145Y003881D01*
X027395Y004631D01*
X027395Y006631D01*
X024645Y009381D01*
X023645Y009381D01*
X023975Y009784D02*
X026627Y009784D01*
X026627Y009942D02*
X023545Y009942D01*
X023545Y010101D02*
X026675Y010101D01*
X026791Y010259D02*
X023545Y010259D01*
X023545Y010418D02*
X035245Y010418D01*
X035245Y010576D02*
X023545Y010576D01*
X023545Y010735D02*
X035245Y010735D01*
X035245Y010893D02*
X023545Y010893D01*
X023545Y011052D02*
X035245Y011052D01*
X035245Y011210D02*
X023545Y011210D01*
X023545Y011369D02*
X027937Y011369D01*
X028009Y011350D02*
X028281Y011350D01*
X028543Y011420D01*
X028778Y011556D01*
X028970Y011748D01*
X029106Y011983D01*
X029176Y012245D01*
X029176Y012517D01*
X029106Y012779D01*
X028970Y013014D01*
X028778Y013206D01*
X028543Y013342D01*
X028281Y013412D01*
X028009Y013412D01*
X027747Y013342D01*
X027512Y013206D01*
X027320Y013014D01*
X027184Y012779D01*
X027114Y012517D01*
X027114Y012245D01*
X027184Y011983D01*
X027320Y011748D01*
X027512Y011556D01*
X027747Y011420D01*
X028009Y011350D01*
X028353Y011369D02*
X035245Y011369D01*
X035245Y011528D02*
X028730Y011528D01*
X028909Y011686D02*
X035245Y011686D01*
X035245Y011845D02*
X029026Y011845D01*
X029111Y012003D02*
X035263Y012003D01*
X035360Y012162D02*
X029154Y012162D01*
X029176Y012320D02*
X035519Y012320D01*
X035690Y012479D02*
X029176Y012479D01*
X029144Y012637D02*
X035962Y012637D01*
X035813Y012796D02*
X029096Y012796D01*
X029005Y012954D02*
X035747Y012954D01*
X035725Y013113D02*
X028871Y013113D01*
X028665Y013272D02*
X035732Y013272D01*
X035798Y013430D02*
X023545Y013430D01*
X023545Y013272D02*
X027626Y013272D01*
X027419Y013113D02*
X023545Y013113D01*
X023545Y012954D02*
X027286Y012954D01*
X027194Y012796D02*
X023545Y012796D01*
X023545Y012637D02*
X027146Y012637D01*
X027114Y012479D02*
X023545Y012479D01*
X023545Y012320D02*
X027114Y012320D01*
X027136Y012162D02*
X023545Y012162D01*
X023545Y012003D02*
X027179Y012003D01*
X027264Y011845D02*
X023545Y011845D01*
X023545Y011686D02*
X027381Y011686D01*
X027560Y011528D02*
X023545Y011528D01*
X022125Y011528D02*
X021145Y011528D01*
X021163Y011369D02*
X022125Y011369D01*
X022125Y011210D02*
X021135Y011210D01*
X021049Y011052D02*
X022125Y011052D01*
X022125Y010893D02*
X020822Y010893D01*
X020468Y010893D02*
X017663Y010893D01*
X017658Y011052D02*
X017635Y011052D01*
X017895Y011381D02*
X015145Y014131D01*
X014145Y014131D01*
X013377Y014540D02*
X012395Y014540D01*
X012395Y014698D02*
X013401Y014698D01*
X013287Y014857D02*
X012395Y014857D01*
X012395Y015016D02*
X013225Y015016D01*
X013225Y015174D02*
X012395Y015174D01*
X012395Y015333D02*
X013258Y015333D01*
X013329Y015491D02*
X012395Y015491D01*
X012395Y015650D02*
X013449Y015650D01*
X013308Y015808D02*
X012395Y015808D01*
X012395Y015967D02*
X013242Y015967D01*
X013225Y016125D02*
X012395Y016125D01*
X012395Y016284D02*
X013237Y016284D01*
X013303Y016442D02*
X012395Y016442D01*
X012395Y016601D02*
X013438Y016601D01*
X013339Y016759D02*
X012395Y016759D01*
X012395Y016918D02*
X013262Y016918D01*
X013225Y017077D02*
X012395Y017077D01*
X012308Y017235D02*
X013225Y017235D01*
X013283Y017394D02*
X012176Y017394D01*
X012044Y017552D02*
X013390Y017552D01*
X013388Y017711D02*
X011912Y017711D01*
X011780Y017869D02*
X013282Y017869D01*
X013225Y018028D02*
X011648Y018028D01*
X011515Y018186D02*
X013225Y018186D01*
X013263Y018345D02*
X011383Y018345D01*
X011251Y018503D02*
X013341Y018503D01*
X013437Y018662D02*
X011145Y018662D01*
X011145Y018821D02*
X013302Y018821D01*
X013237Y018979D02*
X011145Y018979D01*
X011145Y019138D02*
X013225Y019138D01*
X013242Y019296D02*
X011145Y019296D01*
X011145Y019455D02*
X013308Y019455D01*
X013451Y019613D02*
X011145Y019613D01*
X011145Y019772D02*
X013525Y019772D01*
X013408Y019930D02*
X011145Y019930D01*
X011145Y020089D02*
X013365Y020089D01*
X013374Y020247D02*
X011145Y020247D01*
X011145Y020406D02*
X013441Y020406D01*
X013638Y020565D02*
X011145Y020565D01*
X011145Y020723D02*
X015845Y020723D01*
X015779Y020565D02*
X014652Y020565D01*
X014717Y020538D02*
X014541Y020611D01*
X014165Y020611D01*
X014165Y020151D01*
X014925Y020151D01*
X014925Y020226D01*
X014852Y020403D01*
X014717Y020538D01*
X014849Y020406D02*
X015775Y020406D01*
X015775Y020247D02*
X014916Y020247D01*
X014925Y020089D02*
X015775Y020089D01*
X015775Y019930D02*
X014882Y019930D01*
X014765Y019772D02*
X015775Y019772D01*
X015814Y019613D02*
X014839Y019613D01*
X014982Y019455D02*
X015894Y019455D01*
X016065Y019296D02*
X015048Y019296D01*
X015065Y019138D02*
X016995Y019138D01*
X016995Y019296D02*
X016725Y019296D01*
X016995Y018979D02*
X015112Y018979D01*
X015271Y018821D02*
X016995Y018821D01*
X016995Y018662D02*
X016741Y018662D01*
X016049Y018662D02*
X015429Y018662D01*
X015395Y018131D02*
X014395Y019131D01*
X014145Y019131D01*
X014145Y018131D02*
X014645Y018131D01*
X015145Y017631D01*
X015145Y014881D01*
X018145Y011881D01*
X019645Y011881D01*
X020163Y011845D02*
X020411Y011845D01*
X020155Y012003D02*
X022125Y012003D01*
X022125Y011845D02*
X020879Y011845D01*
X021072Y011686D02*
X022125Y011686D01*
X022125Y012162D02*
X020089Y012162D01*
X019938Y012320D02*
X022125Y012320D01*
X022125Y012479D02*
X018113Y012479D01*
X017954Y012637D02*
X022125Y012637D01*
X022125Y012796D02*
X017796Y012796D01*
X017637Y012954D02*
X022125Y012954D01*
X022125Y013113D02*
X020249Y013113D01*
X020041Y013113D02*
X017478Y013113D01*
X018311Y012281D02*
X019312Y012281D01*
X019352Y012320D01*
X020519Y013272D02*
X022125Y013272D01*
X022125Y013430D02*
X020623Y013430D01*
X020663Y013589D02*
X022125Y013589D01*
X022125Y013747D02*
X020694Y013747D01*
X020805Y013906D02*
X021145Y013906D01*
X021111Y014064D02*
X020820Y014064D01*
X020820Y014223D02*
X021111Y014223D01*
X021111Y014540D02*
X020820Y014540D01*
X020895Y014473D02*
X021501Y014473D01*
X021645Y014330D01*
X021567Y014381D02*
X020820Y014381D01*
X020820Y014698D02*
X021111Y014698D01*
X021098Y014857D02*
X020731Y014857D01*
X020895Y015418D02*
X020395Y015418D01*
X020417Y015441D01*
X020145Y015441D01*
X020895Y015418D02*
X020909Y015432D01*
X021645Y015432D01*
X021567Y014223D02*
X021723Y014223D01*
X021723Y014064D02*
X021567Y014064D01*
X021567Y013906D02*
X021723Y013906D01*
X020145Y013631D02*
X020145Y014321D01*
X019955Y014131D01*
X019895Y014131D01*
X019145Y014881D01*
X019145Y016381D01*
X018995Y017407D02*
X018673Y017730D01*
X018875Y017932D01*
X018875Y018111D01*
X018415Y018111D01*
X018415Y018151D01*
X018375Y018151D01*
X018375Y018611D01*
X018196Y018611D01*
X017994Y018409D01*
X017795Y018608D01*
X017795Y019354D01*
X017921Y019480D01*
X017971Y019601D01*
X017988Y019559D01*
X018123Y019424D01*
X018300Y019351D01*
X018375Y019351D01*
X018375Y020111D01*
X018415Y020111D01*
X018415Y019351D01*
X018491Y019351D01*
X018667Y019424D01*
X018802Y019559D01*
X018819Y019601D01*
X018869Y019480D01*
X019044Y019305D01*
X019272Y019211D01*
X019409Y019211D01*
X019168Y018970D01*
X019056Y018857D01*
X018995Y018710D01*
X018995Y017407D01*
X018995Y017552D02*
X018850Y017552D01*
X018995Y017711D02*
X018692Y017711D01*
X018812Y017869D02*
X018995Y017869D01*
X018995Y018028D02*
X018875Y018028D01*
X018875Y018151D02*
X018415Y018151D01*
X018415Y018611D01*
X018594Y018611D01*
X018875Y018330D01*
X018875Y018151D01*
X018875Y018186D02*
X018995Y018186D01*
X018995Y018345D02*
X018860Y018345D01*
X018995Y018503D02*
X018701Y018503D01*
X018415Y018503D02*
X018375Y018503D01*
X018375Y018345D02*
X018415Y018345D01*
X018415Y018186D02*
X018375Y018186D01*
X018089Y018503D02*
X017899Y018503D01*
X017795Y018662D02*
X018995Y018662D01*
X019041Y018821D02*
X017795Y018821D01*
X017795Y018979D02*
X019178Y018979D01*
X019336Y019138D02*
X017795Y019138D01*
X017795Y019296D02*
X019065Y019296D01*
X018894Y019455D02*
X018698Y019455D01*
X018415Y019455D02*
X018375Y019455D01*
X018375Y019613D02*
X018415Y019613D01*
X018415Y019772D02*
X018375Y019772D01*
X018375Y019930D02*
X018415Y019930D01*
X018415Y020089D02*
X018375Y020089D01*
X018375Y020247D02*
X018415Y020247D01*
X018415Y020406D02*
X018375Y020406D01*
X018375Y020565D02*
X018415Y020565D01*
X018415Y020723D02*
X018375Y020723D01*
X018375Y020882D02*
X018415Y020882D01*
X018561Y020882D02*
X018969Y020882D01*
X018845Y020723D02*
X018782Y020723D01*
X019246Y021040D02*
X017544Y021040D01*
X017246Y021040D02*
X016544Y021040D01*
X016246Y021040D02*
X011145Y021040D01*
X011145Y020882D02*
X015969Y020882D01*
X016821Y020882D02*
X016969Y020882D01*
X017821Y020882D02*
X018229Y020882D01*
X018009Y020723D02*
X017945Y020723D01*
X017395Y020131D02*
X017395Y018131D01*
X016395Y018131D02*
X015645Y018131D01*
X015645Y016881D01*
X016645Y015881D01*
X015645Y015881D02*
X016645Y014881D01*
X017895Y014881D01*
X017747Y014381D02*
X016210Y014381D01*
X016052Y014540D02*
X016423Y014540D01*
X016262Y014698D02*
X015893Y014698D01*
X015734Y014857D02*
X016103Y014857D01*
X015945Y015016D02*
X015576Y015016D01*
X015545Y015174D02*
X015786Y015174D01*
X015628Y015333D02*
X015545Y015333D01*
X013278Y014381D02*
X012395Y014381D01*
X012395Y014223D02*
X013225Y014223D01*
X013225Y014064D02*
X012527Y014064D01*
X012686Y013906D02*
X013267Y013906D01*
X013352Y013747D02*
X012844Y013747D01*
X013003Y013589D02*
X013426Y013589D01*
X013298Y013430D02*
X013161Y013430D01*
X011395Y012981D02*
X011395Y012381D01*
X011495Y012281D01*
X005228Y012281D01*
X005189Y012320D01*
X004998Y012399D01*
X004795Y012399D01*
X004795Y012981D01*
X011395Y012981D01*
X011395Y012954D02*
X004795Y012954D01*
X004795Y012796D02*
X011395Y012796D01*
X011395Y012637D02*
X004795Y012637D01*
X004795Y012479D02*
X011395Y012479D01*
X011456Y012320D02*
X005188Y012320D01*
X004895Y011881D02*
X012645Y011881D01*
X013645Y010881D01*
X017145Y010881D01*
X017895Y011381D02*
X020645Y011381D01*
X019272Y010576D02*
X022125Y010576D01*
X022125Y010418D02*
X019430Y010418D01*
X019737Y010259D02*
X022125Y010259D01*
X022125Y010735D02*
X019113Y010735D01*
X018820Y009784D02*
X018690Y009784D01*
X018690Y009625D02*
X018943Y009625D01*
X018926Y009466D02*
X018690Y009466D01*
X018572Y009308D02*
X018926Y009308D01*
X018926Y009149D02*
X018414Y009149D01*
X018195Y009149D02*
X018195Y009149D01*
X018195Y009308D02*
X018195Y009308D01*
X018195Y009466D02*
X018195Y009466D01*
X018195Y009625D02*
X018195Y009625D01*
X017700Y009784D02*
X015742Y009784D01*
X017347Y008832D02*
X018926Y008832D01*
X018926Y008991D02*
X017505Y008991D01*
X017664Y009149D02*
X017976Y009149D01*
X017849Y008515D02*
X017029Y008515D01*
X016871Y008357D02*
X017849Y008357D01*
X018266Y008357D02*
X018421Y008357D01*
X018421Y008515D02*
X018266Y008515D01*
X018266Y008198D02*
X016712Y008198D01*
X017188Y008674D02*
X018867Y008674D01*
X018421Y008040D02*
X018266Y008040D01*
X018266Y007881D02*
X018421Y007881D01*
X018421Y007723D02*
X018266Y007723D01*
X017849Y007723D02*
X010753Y007723D01*
X010669Y007807D02*
X010755Y007842D01*
X010933Y008021D01*
X011030Y008254D01*
X011030Y008507D01*
X010933Y008740D01*
X010755Y008919D01*
X010692Y008945D01*
X010834Y009087D01*
X010913Y009278D01*
X010913Y009484D01*
X010834Y009674D01*
X010689Y009820D01*
X010498Y009899D01*
X010292Y009899D01*
X010102Y009820D01*
X009956Y009674D01*
X009877Y009484D01*
X009877Y009428D01*
X009729Y009281D01*
X009228Y009281D01*
X009189Y009320D01*
X008998Y009399D01*
X008792Y009399D01*
X008602Y009320D01*
X008456Y009174D01*
X008377Y008984D01*
X008377Y008781D01*
X007913Y008781D01*
X007913Y008984D01*
X007834Y009174D01*
X007689Y009320D01*
X007498Y009399D01*
X007292Y009399D01*
X007102Y009320D01*
X007062Y009281D01*
X005728Y009281D01*
X005689Y009320D01*
X005498Y009399D01*
X005292Y009399D01*
X005102Y009320D01*
X004956Y009174D01*
X004877Y008984D01*
X004877Y008778D01*
X004956Y008587D01*
X005102Y008442D01*
X005292Y008363D01*
X005498Y008363D01*
X005689Y008442D01*
X005728Y008481D01*
X006377Y008481D01*
X006377Y008278D01*
X006456Y008087D01*
X006602Y007942D01*
X006792Y007863D01*
X006998Y007863D01*
X007189Y007942D01*
X007228Y007981D01*
X009897Y007981D01*
X010035Y007842D01*
X010121Y007807D01*
X009900Y007586D01*
X009900Y007381D01*
X010395Y007381D01*
X010395Y007381D01*
X010890Y007381D01*
X010890Y007586D01*
X010669Y007807D01*
X010793Y007881D02*
X017849Y007881D01*
X017849Y008040D02*
X010941Y008040D01*
X011007Y008198D02*
X013578Y008198D01*
X013419Y008357D02*
X011030Y008357D01*
X011027Y008515D02*
X013261Y008515D01*
X013102Y008674D02*
X010961Y008674D01*
X010841Y008832D02*
X012944Y008832D01*
X012785Y008991D02*
X010738Y008991D01*
X010860Y009149D02*
X012645Y009149D01*
X012645Y009308D02*
X010913Y009308D01*
X010913Y009466D02*
X012645Y009466D01*
X012645Y009625D02*
X010855Y009625D01*
X010725Y009784D02*
X012645Y009784D01*
X012054Y009942D02*
X004795Y009942D01*
X004795Y009784D02*
X010065Y009784D01*
X009935Y009625D02*
X004795Y009625D01*
X004795Y009466D02*
X009877Y009466D01*
X009757Y009308D02*
X009201Y009308D01*
X008895Y008881D02*
X009895Y008881D01*
X010395Y009381D01*
X010395Y008381D02*
X006895Y008381D01*
X006410Y008198D02*
X004795Y008198D01*
X004795Y008040D02*
X006503Y008040D01*
X006748Y007881D02*
X004795Y007881D01*
X004795Y007723D02*
X010037Y007723D01*
X009997Y007881D02*
X007042Y007881D01*
X006377Y008357D02*
X004795Y008357D01*
X004795Y008515D02*
X005028Y008515D01*
X004920Y008674D02*
X004795Y008674D01*
X004795Y008832D02*
X004877Y008832D01*
X004880Y008991D02*
X004795Y008991D01*
X004795Y009149D02*
X004946Y009149D01*
X005089Y009308D02*
X004795Y009308D01*
X005395Y008881D02*
X007395Y008881D01*
X007913Y008832D02*
X008377Y008832D01*
X008380Y008991D02*
X007910Y008991D01*
X007845Y009149D02*
X008446Y009149D01*
X008589Y009308D02*
X007701Y009308D01*
X007089Y009308D02*
X005701Y009308D01*
X004795Y010101D02*
X011803Y010101D01*
X011644Y010259D02*
X004795Y010259D01*
X004795Y010418D02*
X007659Y010418D01*
X007467Y010576D02*
X004795Y010576D01*
X004795Y010735D02*
X007395Y010735D01*
X007218Y010893D02*
X004795Y010893D01*
X004795Y011052D02*
X006991Y011052D01*
X006905Y011210D02*
X004795Y011210D01*
X005013Y011369D02*
X006877Y011369D01*
X007395Y011381D02*
X012395Y011381D01*
X011486Y010418D02*
X008131Y010418D01*
X003895Y010881D02*
X003895Y013881D01*
X003895Y020381D01*
X009395Y020381D01*
X010145Y020882D02*
X002602Y020882D01*
X002744Y020723D02*
X003676Y020723D01*
X003538Y020565D02*
X002835Y020565D01*
X002889Y020406D02*
X003495Y020406D01*
X003029Y020247D02*
X002926Y020247D01*
X003395Y019881D02*
X003395Y011381D01*
X001330Y009942D02*
X001125Y009942D01*
X004795Y007564D02*
X009900Y007564D01*
X009900Y007405D02*
X004795Y007405D01*
X004795Y007247D02*
X005028Y007247D01*
X004956Y007174D02*
X005102Y007320D01*
X005292Y007399D01*
X005498Y007399D01*
X005689Y007320D01*
X005728Y007281D01*
X007062Y007281D01*
X007102Y007320D01*
X007292Y007399D01*
X007498Y007399D01*
X007689Y007320D01*
X007834Y007174D01*
X007913Y006984D01*
X007913Y006778D01*
X007834Y006587D01*
X007689Y006442D01*
X007498Y006363D01*
X007292Y006363D01*
X007102Y006442D01*
X007062Y006481D01*
X005728Y006481D01*
X005689Y006442D01*
X005498Y006363D01*
X005292Y006363D01*
X005102Y006442D01*
X004956Y006587D01*
X004877Y006778D01*
X004877Y006984D01*
X004956Y007174D01*
X004920Y007088D02*
X004795Y007088D01*
X004795Y006930D02*
X004877Y006930D01*
X004880Y006771D02*
X004795Y006771D01*
X004795Y006613D02*
X004945Y006613D01*
X005089Y006454D02*
X004795Y006454D01*
X004795Y006296D02*
X010694Y006296D01*
X010684Y006279D02*
X010614Y006017D01*
X010614Y005745D01*
X010684Y005483D01*
X010820Y005248D01*
X011012Y005056D01*
X011247Y004920D01*
X011509Y004850D01*
X011781Y004850D01*
X012043Y004920D01*
X012278Y005056D01*
X012470Y005248D01*
X012606Y005483D01*
X012676Y005745D01*
X012676Y006017D01*
X012606Y006279D01*
X012470Y006514D01*
X012278Y006706D01*
X012043Y006842D01*
X011781Y006912D01*
X011509Y006912D01*
X011247Y006842D01*
X011012Y006706D01*
X010820Y006514D01*
X010684Y006279D01*
X010646Y006137D02*
X004795Y006137D01*
X004795Y005979D02*
X010614Y005979D01*
X010614Y005820D02*
X004795Y005820D01*
X004795Y005661D02*
X010636Y005661D01*
X010679Y005503D02*
X004795Y005503D01*
X004795Y005344D02*
X010764Y005344D01*
X010882Y005186D02*
X004823Y005186D01*
X004895Y005027D02*
X011061Y005027D01*
X011438Y004869D02*
X004913Y004869D01*
X004885Y004710D02*
X020402Y004710D01*
X020402Y004552D02*
X004799Y004552D01*
X004671Y004393D02*
X007619Y004393D01*
X008171Y004393D02*
X020402Y004393D01*
X020402Y004351D02*
X020507Y004246D01*
X021565Y004246D01*
X021565Y005566D01*
X021725Y005566D01*
X021725Y004246D01*
X022783Y004246D01*
X022888Y004351D01*
X022888Y005567D01*
X021725Y005567D01*
X021725Y005726D01*
X022888Y005726D01*
X022888Y006942D01*
X022783Y007047D01*
X021725Y007047D01*
X021725Y005727D01*
X021565Y005727D01*
X021565Y007047D01*
X020507Y007047D01*
X020402Y006942D01*
X020402Y005726D01*
X021565Y005726D01*
X021565Y005567D01*
X020402Y005567D01*
X020402Y004351D01*
X020402Y004869D02*
X011852Y004869D01*
X012229Y005027D02*
X020402Y005027D01*
X020402Y005186D02*
X012408Y005186D01*
X012526Y005344D02*
X020402Y005344D01*
X020402Y005503D02*
X012611Y005503D01*
X012654Y005661D02*
X021565Y005661D01*
X021565Y005503D02*
X021725Y005503D01*
X021725Y005661D02*
X024895Y005661D01*
X024895Y005503D02*
X022888Y005503D01*
X022888Y005344D02*
X024895Y005344D01*
X024895Y005186D02*
X022888Y005186D01*
X022888Y005027D02*
X024895Y005027D01*
X024895Y004869D02*
X022888Y004869D01*
X022888Y004710D02*
X024895Y004710D01*
X024895Y004552D02*
X022888Y004552D01*
X022888Y004393D02*
X024895Y004393D01*
X024895Y004235D02*
X012191Y004235D01*
X012100Y004326D02*
X011895Y004326D01*
X011690Y004326D01*
X011400Y004036D01*
X011400Y003831D01*
X011895Y003831D01*
X011895Y004326D01*
X011895Y003831D01*
X011895Y003831D01*
X011895Y003831D01*
X012390Y003831D01*
X012390Y004036D01*
X012100Y004326D01*
X011895Y004235D02*
X011895Y004235D01*
X011895Y004076D02*
X011895Y004076D01*
X011895Y003917D02*
X011895Y003917D01*
X011895Y003831D02*
X011895Y003831D01*
X011400Y003831D01*
X011400Y003626D01*
X011690Y003336D01*
X011895Y003336D01*
X012100Y003336D01*
X012390Y003626D01*
X012390Y003831D01*
X011895Y003831D01*
X011895Y003830D02*
X011895Y003336D01*
X011895Y003830D01*
X011895Y003830D01*
X011895Y003759D02*
X011895Y003759D01*
X011895Y003600D02*
X011895Y003600D01*
X011895Y003442D02*
X011895Y003442D01*
X011584Y003442D02*
X008305Y003442D01*
X008301Y003393D02*
X008021Y003277D01*
X007806Y003063D01*
X007690Y002782D01*
X007690Y002479D01*
X007806Y002199D01*
X008021Y001984D01*
X008301Y001868D01*
X009489Y001868D01*
X009769Y001984D01*
X009984Y002199D01*
X010100Y002479D01*
X010100Y002782D01*
X009984Y003063D01*
X009769Y003277D01*
X009489Y003393D01*
X008301Y003393D01*
X008405Y003600D02*
X011425Y003600D01*
X011400Y003759D02*
X008413Y003759D01*
X008413Y003917D02*
X011400Y003917D01*
X011440Y004076D02*
X008413Y004076D01*
X008375Y004235D02*
X011599Y004235D01*
X012350Y004076D02*
X024895Y004076D01*
X024895Y003917D02*
X012390Y003917D01*
X012390Y003759D02*
X024895Y003759D01*
X024895Y003600D02*
X012365Y003600D01*
X012206Y003442D02*
X024895Y003442D01*
X024895Y003283D02*
X021505Y003283D01*
X021519Y003277D02*
X021239Y003393D01*
X020051Y003393D01*
X019771Y003277D01*
X019556Y003063D01*
X019440Y002782D01*
X019440Y002479D01*
X019556Y002199D01*
X019771Y001984D01*
X020051Y001868D01*
X021239Y001868D01*
X021519Y001984D01*
X021734Y002199D01*
X021850Y002479D01*
X021850Y002782D01*
X021734Y003063D01*
X021519Y003277D01*
X021672Y003125D02*
X024895Y003125D01*
X024895Y002966D02*
X021774Y002966D01*
X021840Y002808D02*
X024895Y002808D01*
X024895Y002649D02*
X021850Y002649D01*
X021850Y002491D02*
X024895Y002491D01*
X024895Y002332D02*
X021789Y002332D01*
X021709Y002174D02*
X024895Y002174D01*
X024895Y002015D02*
X021550Y002015D01*
X019740Y002015D02*
X015228Y002015D01*
X015211Y002008D02*
X015440Y002103D01*
X015615Y002278D01*
X015710Y002507D01*
X015710Y002563D01*
X014713Y002563D01*
X014713Y002698D01*
X015710Y002698D01*
X015710Y002755D01*
X015615Y002983D01*
X015440Y003159D01*
X015211Y003253D01*
X014713Y003253D01*
X014713Y002699D01*
X014577Y002699D01*
X014577Y003253D01*
X014079Y003253D01*
X013850Y003159D01*
X013675Y002983D01*
X013580Y002755D01*
X013580Y002698D01*
X014577Y002698D01*
X014577Y002563D01*
X013580Y002563D01*
X013580Y002507D01*
X013675Y002278D01*
X013850Y002103D01*
X014079Y002008D01*
X014577Y002008D01*
X014577Y002563D01*
X014713Y002563D01*
X014713Y002008D01*
X015211Y002008D01*
X015511Y002174D02*
X019581Y002174D01*
X019501Y002332D02*
X015638Y002332D01*
X015703Y002491D02*
X019440Y002491D01*
X019440Y002649D02*
X014713Y002649D01*
X014577Y002649D02*
X012492Y002649D01*
X012530Y002491D02*
X013587Y002491D01*
X013652Y002332D02*
X012530Y002332D01*
X012476Y002174D02*
X013779Y002174D01*
X014062Y002015D02*
X012377Y002015D01*
X012416Y002808D02*
X013602Y002808D01*
X013668Y002966D02*
X012258Y002966D01*
X011532Y002966D02*
X010024Y002966D01*
X010090Y002808D02*
X011374Y002808D01*
X011298Y002649D02*
X010100Y002649D01*
X010100Y002491D02*
X011260Y002491D01*
X011260Y002332D02*
X010039Y002332D01*
X009959Y002174D02*
X011314Y002174D01*
X011413Y002015D02*
X009800Y002015D01*
X009922Y003125D02*
X013816Y003125D01*
X014577Y003125D02*
X014713Y003125D01*
X014713Y002966D02*
X014577Y002966D01*
X014577Y002808D02*
X014713Y002808D01*
X014713Y002491D02*
X014577Y002491D01*
X014577Y002332D02*
X014713Y002332D01*
X014713Y002174D02*
X014577Y002174D01*
X014577Y002015D02*
X014713Y002015D01*
X015688Y002808D02*
X019450Y002808D01*
X019516Y002966D02*
X015622Y002966D01*
X015474Y003125D02*
X019618Y003125D01*
X019785Y003283D02*
X009755Y003283D01*
X008035Y003283D02*
X003755Y003283D01*
X003922Y003125D02*
X007868Y003125D01*
X007766Y002966D02*
X004024Y002966D01*
X004090Y002808D02*
X007700Y002808D01*
X007690Y002649D02*
X004100Y002649D01*
X004100Y002491D02*
X007690Y002491D01*
X007751Y002332D02*
X004039Y002332D01*
X003959Y002174D02*
X007831Y002174D01*
X007990Y002015D02*
X003800Y002015D01*
X004805Y003442D02*
X007485Y003442D01*
X007895Y003881D02*
X004395Y003881D01*
X005701Y006454D02*
X007089Y006454D01*
X007395Y006881D02*
X005395Y006881D01*
X007701Y006454D02*
X010785Y006454D01*
X010919Y006613D02*
X007845Y006613D01*
X007910Y006771D02*
X011125Y006771D01*
X010803Y007088D02*
X023111Y007088D01*
X023121Y006930D02*
X022888Y006930D01*
X022888Y006771D02*
X024895Y006771D01*
X024895Y006613D02*
X022888Y006613D01*
X022888Y006454D02*
X024895Y006454D01*
X024895Y006296D02*
X022888Y006296D01*
X022888Y006137D02*
X024895Y006137D01*
X024895Y005979D02*
X022888Y005979D01*
X022888Y005820D02*
X024895Y005820D01*
X025145Y005820D02*
X026352Y005820D01*
X026206Y005674D01*
X026127Y005484D01*
X026127Y005278D01*
X026206Y005087D01*
X026245Y005048D01*
X026245Y003408D01*
X026119Y003282D01*
X026025Y003054D01*
X026025Y002207D01*
X026119Y001980D01*
X026218Y001881D01*
X025145Y001881D01*
X025145Y007815D01*
X026745Y006215D01*
X026745Y005899D01*
X026542Y005899D01*
X026352Y005820D01*
X026201Y005661D02*
X025145Y005661D01*
X025145Y005503D02*
X026135Y005503D01*
X026127Y005344D02*
X025145Y005344D01*
X025145Y005186D02*
X026165Y005186D01*
X026245Y005027D02*
X025145Y005027D01*
X025145Y004869D02*
X026245Y004869D01*
X026245Y004710D02*
X025145Y004710D01*
X025145Y004552D02*
X026245Y004552D01*
X026245Y004393D02*
X025145Y004393D01*
X025145Y004235D02*
X026245Y004235D01*
X026245Y004076D02*
X025145Y004076D01*
X025145Y003917D02*
X026245Y003917D01*
X026245Y003759D02*
X025145Y003759D01*
X025145Y003600D02*
X026245Y003600D01*
X026245Y003442D02*
X025145Y003442D01*
X025145Y003283D02*
X026121Y003283D01*
X026054Y003125D02*
X025145Y003125D01*
X025145Y002966D02*
X026025Y002966D01*
X026025Y002808D02*
X025145Y002808D01*
X025145Y002649D02*
X026025Y002649D01*
X026025Y002491D02*
X025145Y002491D01*
X025145Y002332D02*
X026025Y002332D01*
X026039Y002174D02*
X025145Y002174D01*
X025145Y002015D02*
X026105Y002015D01*
X026645Y002631D02*
X026645Y005381D01*
X026745Y005979D02*
X025145Y005979D01*
X025145Y006137D02*
X026745Y006137D01*
X026664Y006296D02*
X025145Y006296D01*
X025145Y006454D02*
X026506Y006454D01*
X026347Y006613D02*
X025145Y006613D01*
X025145Y006771D02*
X026189Y006771D01*
X026030Y006930D02*
X025145Y006930D01*
X025145Y007088D02*
X025872Y007088D01*
X025713Y007247D02*
X025145Y007247D01*
X025145Y007405D02*
X025555Y007405D01*
X025396Y007564D02*
X025145Y007564D01*
X025145Y007723D02*
X025238Y007723D01*
X024895Y007723D02*
X024176Y007723D01*
X024179Y007564D02*
X024895Y007564D01*
X024895Y007405D02*
X023723Y007405D01*
X023567Y007405D02*
X010890Y007405D01*
X010890Y007381D02*
X010395Y007381D01*
X010395Y007381D01*
X009900Y007381D01*
X009900Y007176D01*
X010190Y006886D01*
X010395Y006886D01*
X010600Y006886D01*
X010890Y007176D01*
X010890Y007381D01*
X010890Y007247D02*
X023111Y007247D01*
X023111Y007564D02*
X020001Y007564D01*
X020081Y007723D02*
X023114Y007723D01*
X023074Y007881D02*
X020081Y007881D01*
X020081Y008040D02*
X020273Y008040D01*
X020231Y008198D02*
X020081Y008198D01*
X020081Y008357D02*
X020231Y008357D01*
X020227Y008515D02*
X020081Y008515D01*
X020025Y008674D02*
X020227Y008674D01*
X020208Y008832D02*
X019966Y008832D01*
X019966Y008991D02*
X020050Y008991D01*
X021267Y008991D02*
X022064Y008991D01*
X022026Y008832D02*
X021267Y008832D01*
X021267Y008674D02*
X022026Y008674D01*
X022026Y008515D02*
X021267Y008515D01*
X021264Y008357D02*
X022026Y008357D01*
X022026Y008198D02*
X021264Y008198D01*
X021222Y008040D02*
X022068Y008040D01*
X023567Y007247D02*
X023723Y007247D01*
X023723Y007088D02*
X023567Y007088D01*
X023567Y006930D02*
X023723Y006930D01*
X024169Y006930D02*
X024895Y006930D01*
X024895Y007088D02*
X024179Y007088D01*
X024179Y007247D02*
X024895Y007247D01*
X024895Y007881D02*
X024216Y007881D01*
X025759Y008832D02*
X026745Y008832D01*
X026745Y008674D02*
X025918Y008674D01*
X026076Y008515D02*
X026745Y008515D01*
X026745Y008357D02*
X026235Y008357D01*
X026393Y008198D02*
X026745Y008198D01*
X026775Y008040D02*
X026552Y008040D01*
X026710Y007881D02*
X026889Y007881D01*
X026869Y007723D02*
X027047Y007723D01*
X027027Y007564D02*
X027206Y007564D01*
X027186Y007405D02*
X027365Y007405D01*
X027345Y007247D02*
X027470Y007247D01*
X028145Y007191D02*
X027145Y008191D01*
X027145Y009881D01*
X026690Y009625D02*
X024966Y009625D01*
X025125Y009466D02*
X026745Y009466D01*
X026745Y009308D02*
X025283Y009308D01*
X025442Y009149D02*
X026745Y009149D01*
X026745Y008991D02*
X025601Y008991D01*
X027645Y009131D02*
X028645Y007881D01*
X029895Y006691D01*
X029895Y005571D02*
X029705Y005381D01*
X029145Y005381D01*
X028145Y006071D02*
X027895Y005821D01*
X027895Y005381D01*
X032906Y004076D02*
X033273Y004076D01*
X033117Y004235D02*
X033017Y004235D01*
X033045Y004393D02*
X033052Y004393D01*
X034017Y004076D02*
X034273Y004076D01*
X035017Y004076D02*
X035273Y004076D01*
X035359Y010101D02*
X029114Y010101D01*
X027499Y010259D02*
X035262Y010259D01*
X035926Y013589D02*
X023545Y013589D01*
X023545Y013747D02*
X035852Y013747D01*
X035767Y013906D02*
X033511Y013906D01*
X033640Y014064D02*
X035725Y014064D01*
X035725Y014223D02*
X033663Y014223D01*
X033663Y014381D02*
X035778Y014381D01*
X035877Y014540D02*
X033663Y014540D01*
X033640Y014698D02*
X035901Y014698D01*
X035787Y014857D02*
X033545Y014857D01*
X033545Y015016D02*
X035725Y015016D01*
X035725Y015174D02*
X033545Y015174D01*
X033545Y015333D02*
X035758Y015333D01*
X035829Y015491D02*
X033545Y015491D01*
X033545Y015650D02*
X035949Y015650D01*
X035808Y015808D02*
X033545Y015808D01*
X033545Y015967D02*
X035742Y015967D01*
X035725Y016125D02*
X033545Y016125D01*
X033545Y016284D02*
X035737Y016284D01*
X035803Y016442D02*
X033545Y016442D01*
X033545Y016601D02*
X035938Y016601D01*
X035839Y016759D02*
X033545Y016759D01*
X033545Y016918D02*
X035762Y016918D01*
X035725Y017077D02*
X033545Y017077D01*
X033565Y017235D02*
X035725Y017235D01*
X035783Y017394D02*
X033724Y017394D01*
X033882Y017552D02*
X035890Y017552D01*
X035240Y017711D02*
X034041Y017711D01*
X033895Y018131D02*
X032895Y019131D01*
X031645Y019131D01*
X031456Y019613D02*
X030074Y019613D01*
X030125Y019772D02*
X035827Y019772D01*
X035757Y019930D02*
X030125Y019930D01*
X030125Y020089D02*
X035725Y020089D01*
X035725Y020247D02*
X030125Y020247D01*
X030125Y020406D02*
X035788Y020406D01*
X035902Y020565D02*
X030109Y020565D01*
X030032Y020723D02*
X036155Y020723D01*
X037135Y020723D02*
X037535Y020723D01*
X037535Y020565D02*
X037388Y020565D01*
X037502Y020406D02*
X037535Y020406D01*
X035951Y019613D02*
X031834Y019613D01*
X031236Y019455D02*
X029948Y019455D01*
X028645Y018881D02*
X027895Y018131D01*
X026895Y019131D02*
X021645Y019131D01*
X021020Y018506D01*
X021976Y019613D02*
X022314Y019613D01*
X022275Y019772D02*
X022015Y019772D01*
X022015Y019930D02*
X022275Y019930D01*
X023445Y020723D02*
X023509Y020723D01*
X023321Y020882D02*
X023729Y020882D01*
X023875Y020882D02*
X023915Y020882D01*
X023915Y020911D02*
X023915Y020151D01*
X024375Y020151D01*
X024375Y020526D01*
X024302Y020703D01*
X024167Y020838D01*
X023991Y020911D01*
X023915Y020911D01*
X024061Y020882D02*
X024729Y020882D01*
X024875Y020882D02*
X024915Y020882D01*
X025061Y020882D02*
X025469Y020882D01*
X025345Y020723D02*
X025282Y020723D01*
X024915Y020723D02*
X024875Y020723D01*
X024875Y020565D02*
X024915Y020565D01*
X024915Y020406D02*
X024875Y020406D01*
X024875Y020247D02*
X024915Y020247D01*
X024415Y020247D02*
X024375Y020247D01*
X024375Y020089D02*
X024415Y020089D01*
X024415Y019930D02*
X024375Y019930D01*
X024375Y019772D02*
X024415Y019772D01*
X024466Y019613D02*
X024324Y019613D01*
X023915Y020247D02*
X023875Y020247D01*
X023875Y020406D02*
X023915Y020406D01*
X023915Y020565D02*
X023875Y020565D01*
X023875Y020723D02*
X023915Y020723D01*
X024282Y020723D02*
X024509Y020723D01*
X024431Y020565D02*
X024359Y020565D01*
X024375Y020406D02*
X024415Y020406D01*
X026321Y020882D02*
X027219Y020882D01*
X027095Y020723D02*
X026445Y020723D01*
X026511Y020565D02*
X027029Y020565D01*
X027025Y020406D02*
X026515Y020406D01*
X026515Y020247D02*
X027025Y020247D01*
X027025Y020089D02*
X026515Y020089D01*
X026515Y019930D02*
X027025Y019930D01*
X026970Y019772D02*
X026515Y019772D01*
X026476Y019613D02*
X026812Y019613D01*
X026895Y019131D02*
X027645Y019881D01*
X027645Y020131D01*
X028071Y020882D02*
X028219Y020882D01*
X033137Y019455D02*
X035808Y019455D01*
X035742Y019296D02*
X033295Y019296D01*
X033454Y019138D02*
X035725Y019138D01*
X035737Y018979D02*
X033612Y018979D01*
X033771Y018821D02*
X035802Y018821D01*
X035937Y018662D02*
X033929Y018662D01*
X033895Y018131D02*
X036645Y018131D01*
X036645Y018080D01*
X035395Y018080D01*
X033895Y018131D02*
X033145Y017381D01*
X033145Y014381D01*
X032627Y014381D02*
X023545Y014381D01*
X023545Y014223D02*
X032627Y014223D01*
X032650Y014064D02*
X023545Y014064D01*
X023545Y013906D02*
X032779Y013906D01*
X032627Y014540D02*
X023545Y014540D01*
X023545Y014698D02*
X032650Y014698D01*
X032745Y014857D02*
X027096Y014857D01*
X027174Y014889D02*
X027337Y015052D01*
X027425Y015265D01*
X027425Y015395D01*
X027736Y015706D01*
X027825Y015706D01*
X027942Y015755D01*
X028032Y015845D01*
X028081Y015963D01*
X028081Y016799D01*
X028032Y016916D01*
X027942Y017006D01*
X027825Y017055D01*
X027068Y017055D01*
X026950Y017006D01*
X026860Y016916D01*
X026823Y016826D01*
X026733Y016915D01*
X026421Y016915D01*
X026421Y016459D01*
X026266Y016459D01*
X026266Y016915D01*
X025954Y016915D01*
X025895Y016856D01*
X025836Y016915D01*
X025524Y016915D01*
X025524Y016459D01*
X025369Y016459D01*
X025369Y016915D01*
X025057Y016915D01*
X024968Y016826D01*
X024930Y016916D01*
X024840Y017006D01*
X024722Y017055D01*
X023965Y017055D01*
X023848Y017006D01*
X023758Y016916D01*
X023709Y016799D01*
X023709Y015963D01*
X023758Y015845D01*
X023848Y015755D01*
X023965Y015706D01*
X024054Y015706D01*
X024365Y015395D01*
X024365Y015265D01*
X024453Y015052D01*
X024616Y014889D01*
X024830Y014801D01*
X025060Y014801D01*
X025274Y014889D01*
X025437Y015052D01*
X025525Y015265D01*
X025525Y015496D01*
X025437Y015709D01*
X025299Y015846D01*
X025369Y015846D01*
X025369Y016303D01*
X025524Y016303D01*
X025524Y016458D01*
X025849Y016458D01*
X026266Y016458D01*
X026266Y016303D01*
X025849Y016303D01*
X025524Y016303D01*
X025524Y015846D01*
X025836Y015846D01*
X025895Y015906D01*
X025954Y015846D01*
X026266Y015846D01*
X026266Y016303D01*
X026421Y016303D01*
X026421Y015846D01*
X026491Y015846D01*
X026353Y015709D01*
X026265Y015496D01*
X026265Y015265D01*
X026353Y015052D01*
X026516Y014889D01*
X026730Y014801D01*
X026960Y014801D01*
X027174Y014889D01*
X027300Y015016D02*
X032745Y015016D01*
X032745Y015174D02*
X027387Y015174D01*
X027425Y015333D02*
X032745Y015333D01*
X032745Y015491D02*
X027521Y015491D01*
X027680Y015650D02*
X032745Y015650D01*
X032745Y015808D02*
X027996Y015808D01*
X028081Y015967D02*
X032745Y015967D01*
X032745Y016125D02*
X028081Y016125D01*
X028081Y016284D02*
X032745Y016284D01*
X032745Y016442D02*
X028081Y016442D01*
X028081Y016601D02*
X032745Y016601D01*
X032745Y016759D02*
X028081Y016759D01*
X028031Y016918D02*
X032745Y016918D01*
X032745Y017077D02*
X023545Y017077D01*
X023545Y016918D02*
X023759Y016918D01*
X023709Y016759D02*
X023545Y016759D01*
X023545Y016601D02*
X023709Y016601D01*
X023709Y016442D02*
X023545Y016442D01*
X023545Y016284D02*
X023709Y016284D01*
X023709Y016125D02*
X023545Y016125D01*
X023545Y015967D02*
X023709Y015967D01*
X023795Y015808D02*
X023545Y015808D01*
X023545Y015650D02*
X024110Y015650D01*
X024269Y015491D02*
X023545Y015491D01*
X023545Y015333D02*
X024365Y015333D01*
X024403Y015174D02*
X023545Y015174D01*
X023545Y015016D02*
X024490Y015016D01*
X024694Y014857D02*
X023545Y014857D01*
X024344Y015982D02*
X024945Y015381D01*
X025487Y015174D02*
X026303Y015174D01*
X026265Y015333D02*
X025525Y015333D01*
X025525Y015491D02*
X026265Y015491D01*
X026329Y015650D02*
X025461Y015650D01*
X025338Y015808D02*
X026452Y015808D01*
X026421Y015967D02*
X026266Y015967D01*
X026266Y016125D02*
X026421Y016125D01*
X026421Y016284D02*
X026266Y016284D01*
X026266Y016442D02*
X025524Y016442D01*
X025524Y016284D02*
X025369Y016284D01*
X025369Y016125D02*
X025524Y016125D01*
X025524Y015967D02*
X025369Y015967D01*
X025369Y016601D02*
X025524Y016601D01*
X025524Y016759D02*
X025369Y016759D01*
X024928Y016918D02*
X026862Y016918D01*
X026421Y016759D02*
X026266Y016759D01*
X026266Y016601D02*
X026421Y016601D01*
X027446Y016381D02*
X027446Y015982D01*
X026845Y015381D01*
X026594Y014857D02*
X025196Y014857D01*
X025400Y015016D02*
X026390Y015016D01*
X024344Y015982D02*
X024344Y016381D01*
X023565Y017235D02*
X032745Y017235D01*
X032745Y017394D02*
X023724Y017394D01*
X023882Y017552D02*
X032783Y017552D01*
X032909Y017711D02*
X024041Y017711D01*
X020969Y020882D02*
X020821Y020882D01*
X020544Y021040D02*
X021246Y021040D01*
X020246Y021040D02*
X019544Y021040D01*
X019821Y020882D02*
X019969Y020882D01*
X018092Y019455D02*
X017896Y019455D01*
X015645Y018131D02*
X015395Y018131D01*
X014165Y020247D02*
X014125Y020247D01*
X014125Y020406D02*
X014165Y020406D01*
X014165Y020565D02*
X014125Y020565D01*
X010145Y021040D02*
X002382Y021040D01*
X002866Y019772D02*
X002879Y019772D01*
X002945Y019613D02*
X002787Y019613D01*
X002677Y019455D02*
X002995Y019455D01*
X002995Y019296D02*
X002512Y019296D01*
X002173Y019138D02*
X002995Y019138D01*
X002995Y018979D02*
X001125Y018979D01*
X001125Y018821D02*
X002995Y018821D01*
X002995Y018662D02*
X001125Y018662D01*
X001125Y018503D02*
X002995Y018503D01*
X002995Y018345D02*
X002608Y018345D01*
X002740Y018186D02*
X002995Y018186D01*
X002995Y018028D02*
X002805Y018028D01*
X002815Y017869D02*
X002995Y017869D01*
X002995Y017711D02*
X002796Y017711D01*
X002730Y017552D02*
X002995Y017552D01*
X002995Y017394D02*
X002585Y017394D01*
X002717Y017235D02*
X002995Y017235D01*
X002995Y017077D02*
X002785Y017077D01*
X002815Y016918D02*
X002995Y016918D01*
X002995Y016759D02*
X002815Y016759D01*
X002750Y016601D02*
X002995Y016601D01*
X002995Y016442D02*
X002633Y016442D01*
X002669Y016284D02*
X002995Y016284D01*
X002995Y016125D02*
X002765Y016125D01*
X002815Y015967D02*
X002995Y015967D01*
X002995Y015808D02*
X002815Y015808D01*
X002770Y015650D02*
X002995Y015650D01*
X002995Y015491D02*
X002682Y015491D01*
X002620Y015333D02*
X002995Y015333D01*
X002995Y015174D02*
X002745Y015174D01*
X002810Y015016D02*
X002995Y015016D01*
X002995Y014857D02*
X002815Y014857D01*
X002791Y014698D02*
X002995Y014698D01*
X002995Y014540D02*
X002725Y014540D01*
X002750Y014381D02*
X002572Y014381D01*
X002504Y014223D02*
X001125Y014223D01*
X001125Y014381D02*
X001218Y014381D01*
X003895Y013881D02*
X003895Y019381D01*
X001617Y019138D02*
X001125Y019138D01*
X001125Y019296D02*
X001278Y019296D01*
X001182Y018345D02*
X001125Y018345D01*
X004295Y014857D02*
X010995Y014857D01*
X010995Y014698D02*
X004295Y014698D01*
X004295Y014540D02*
X010995Y014540D01*
X010995Y014381D02*
X004295Y014381D01*
X004295Y014223D02*
X010995Y014223D01*
X010995Y014064D02*
X004295Y014064D01*
X004295Y013906D02*
X011055Y013906D01*
X010890Y007564D02*
X018891Y007564D01*
X020402Y006930D02*
X010644Y006930D01*
X010395Y006930D02*
X010395Y006930D01*
X010395Y006886D02*
X010395Y007380D01*
X010395Y007380D01*
X010395Y006886D01*
X010395Y007088D02*
X010395Y007088D01*
X010395Y007247D02*
X010395Y007247D01*
X009987Y007088D02*
X007870Y007088D01*
X007913Y006930D02*
X010146Y006930D01*
X009900Y007247D02*
X007762Y007247D01*
X012165Y006771D02*
X020402Y006771D01*
X020402Y006613D02*
X012371Y006613D01*
X012505Y006454D02*
X020402Y006454D01*
X020402Y006296D02*
X012596Y006296D01*
X012644Y006137D02*
X020402Y006137D01*
X020402Y005979D02*
X012676Y005979D01*
X012676Y005820D02*
X020402Y005820D01*
X021565Y005820D02*
X021725Y005820D01*
X021725Y005979D02*
X021565Y005979D01*
X021565Y006137D02*
X021725Y006137D01*
X021725Y006296D02*
X021565Y006296D01*
X021565Y006454D02*
X021725Y006454D01*
X021725Y006613D02*
X021565Y006613D01*
X021565Y006771D02*
X021725Y006771D01*
X021725Y006930D02*
X021565Y006930D01*
X021565Y005344D02*
X021725Y005344D01*
X021725Y005186D02*
X021565Y005186D01*
X021565Y005027D02*
X021725Y005027D01*
X021725Y004869D02*
X021565Y004869D01*
X021565Y004710D02*
X021725Y004710D01*
X021725Y004552D02*
X021565Y004552D01*
X021565Y004393D02*
X021725Y004393D01*
D25*
X026395Y008631D03*
X033145Y014381D03*
X025895Y014631D03*
X030645Y020381D03*
X012645Y015381D03*
X012645Y014381D03*
X009395Y015381D03*
X009395Y015881D03*
X009395Y017381D03*
X011645Y018881D03*
X011645Y020381D03*
X006145Y016881D03*
X006145Y016381D03*
X002645Y019131D03*
X001395Y018881D03*
X003395Y020631D03*
X005645Y012381D03*
X006145Y012381D03*
X002145Y011881D03*
X006145Y008381D03*
X006145Y007881D03*
X006145Y007381D03*
X009395Y007381D03*
X009395Y006881D03*
X014145Y006881D03*
X014145Y007881D03*
X014145Y005881D03*
X014145Y004881D03*
X007895Y003881D03*
X006395Y002131D03*
X004895Y002131D03*
X004395Y003881D03*
X009645Y009881D03*
D26*
X007895Y010881D02*
X011645Y010881D01*
X012145Y010381D01*
X018845Y010381D01*
X019595Y009631D01*
X021696Y015381D02*
X022645Y015381D01*
X021696Y015381D02*
X021645Y015432D01*
X007945Y003931D02*
X007895Y003881D01*
D27*
X019446Y008131D02*
X019446Y009482D01*
X019595Y009631D01*
X022645Y009631D01*
X022645Y015381D01*
X022645Y017631D01*
X023645Y018631D01*
X027645Y018631D01*
X028645Y019631D01*
X028645Y020131D01*
X020145Y009631D02*
X019595Y009631D01*
X020145Y009631D02*
X020747Y009028D01*
X020747Y008521D01*
D28*
X022543Y008521D02*
X022631Y008432D01*
X023645Y008432D01*
M02*
